<?xml version="1.0" encoding="UTF-8"?>
<svg id="Capa_1" data-name="Capa 1" xmlns="http://www.w3.org/2000/svg" viewBox="0 0 1000 295">
  <defs>
    <style>
      .cls-1 {
        fill: #f47e2a;
      }

      .cls-2 {
        fill: #5fb650;
      }

      .cls-3 {
        fill: #0659a7;
      }

      .cls-4 {
        fill: #f29abb;
      }

      .cls-5 {
        fill: #f1372c;
      }

      .cls-6 {
        fill: #070707;
      }

      .cls-7 {
        fill: #a52991;
      }

      .cls-8 {
        fill: #fcef07;
      }
    </style>
  </defs>
  <g>
    <path class="cls-6" d="M490.32,93.3c-.46-.3-.99-.37-1.52-.39-1.58-.06-3.17-.18-4.75-.14-5.29,.13-10.55-.24-15.8-.82-2.45-.27-4.9-.47-7.35-.75-1.92-.22-3.84-.5-5.76-.75-.35-.04-.7-.05-1.05-.07-.59-.4-1.23-.63-1.94-.74-3.89-.61-7.77-1.3-11.66-1.87-2.07-.3-4.11-.88-6.23-.86-.24-.1-.47-.26-.71-.31-8.18-1.6-16.24-3.7-24.23-6.07-1.77-.52-3.55-.99-5.32-1.5-1.35-.39-2.69-.79-4.04-1.19-.54-.46-1.23-.62-1.87-.87-5.03-1.92-10.17-3.52-15.15-5.57-.41-.17-.84-.19-1.27-.06-9.49-3.81-18.77-8.09-27.84-12.83-1.08-.57-2.13-1.19-3.2-1.79-.23-.13-.45-.28-.69-.38-1.28-.56-2.56-1.1-3.84-1.65-.41-.32-.79-.68-1.24-.94-4.28-2.56-8.56-5.1-12.84-7.65-.45-.27-.9-.55-1.38-.74-.31-.12-.68-.08-1.03-.11-.7-.52-1.38-1.07-2.11-1.56-5.26-3.54-10.52-7.06-15.65-10.78-4.91-3.57-9.76-7.22-14.41-11.13-1.35-1.13-2.74-2.21-4.11-3.31-.34-.28-.7-.54-1.03-.83-.67-.6-.63-1.43,.1-2.03,.2-.17,.42-.32,.63-.48,1.98-1.46,3.96-2.93,5.95-4.39,.35-.26,.7-.55,1.1-.73,.77-.33,1.59-.36,2.23,.24,1.28,1.21,2.6,2.36,4.02,3.41,5.81,4.28,11.6,8.59,17.73,12.4,4.11,2.56,8.2,5.13,12.32,7.67,4.5,2.77,9.15,5.25,13.84,7.68,7.33,3.81,14.69,7.58,22.3,10.81,13.12,5.57,26.54,10.31,40.27,14.15,7.88,2.21,15.82,4.12,23.84,5.74,4.57,.92,9.17,1.69,13.78,2.37,4.79,.7,9.59,1.29,14.4,1.85,2.8,.32,5.62,.44,8.41,.74,4.29,.46,8.61,.58,12.92,.73,5.54,.2,11.09,.18,16.63,.19,5.19,.01,10.38-.22,15.57-.49,3.51-.19,7.02-.52,10.53-.83,2.28-.2,4.55-.46,6.83-.7,5.6-.6,11.18-1.35,16.73-2.33,3.03-.54,6.03-1.24,9.04-1.86,3.36-.69,6.72-1.37,10.07-2.08,1.55-.33,3.08-.74,4.61-1.13,3.83-.99,7.66-1.96,11.48-2.99,4.67-1.26,9.21-2.94,13.8-4.44,7.94-2.59,15.76-5.52,23.39-8.94,3.69-1.65,7.33-3.43,11.04-5.02,3.24-1.39,6.37-2.98,9.45-4.68,1.54-.85,3.16-1.54,4.7-2.39,2.77-1.53,5.5-3.14,8.25-4.7,1.22-.69,2.43-1.42,3.7-2.03,1.75-.84,3.39-1.87,4.99-2.95,1.31-.89,2.64-1.75,3.95-2.64,1.31-.89,2.62-1.77,3.92-2.69,2.09-1.47,4.13-2.99,6.32-4.31,.98-.59,1.88-1.3,2.81-1.96,4.36-3.14,8.66-6.35,12.86-9.7,.62-.49,1.26-.96,1.93-1.36,.74-.45,1.6-.33,2.2,.21,.13,.12,.26,.24,.37,.38,1.1,1.4,2.49,2.47,3.9,3.54,.98,.74,1.98,1.47,2.75,2.46,.24,.3,.23,.64-.08,.92-.66,.59-1.31,1.17-1.98,1.74-9.71,8.31-19.94,15.92-30.5,23.1-1.23,.84-2.44,1.72-3.66,2.58-.34,.07-.71,.07-1.01,.22-.63,.31-1.22,.7-1.82,1.06-4.8,2.89-9.6,5.79-14.4,8.68-.39,.23-.71,.51-.76,.99-2.35,.76-4.52,1.88-6.64,3.15-1.65,.99-3.4,1.83-5.12,2.69-2.74,1.37-5.5,2.72-8.26,4.05-4.35,2.1-8.74,4.07-13.3,5.66-.57,.2-1.19,.35-1.54,.93-.09,0-.18,0-.26,.02-5.84,2.13-11.67,4.26-17.5,6.4-.23,.09-.43,.28-.64,.43-.63-.05-1.2,.16-1.79,.35-3.92,1.24-7.83,2.48-11.76,3.66-1.42,.43-2.88,.7-4.33,1.06-4.24,1.04-8.49,2.08-12.73,3.11-.59,.14-1.2,.26-1.8,.37-1.04,.19-2.03,.53-2.93,1.08-1.89,.3-3.78,.6-5.66,.9-3.7,.58-7.4,1.15-11.09,1.75-.77,.12-1.53,.32-2.29,.54-.22,.07-.39,.33-.58,.5-3.01-.26-5.97,.16-8.91,.66-2.95,.51-5.89,.92-8.88,1.01-2.98,.09-5.97,.26-8.92,.74-.6,.1-1.23,.13-1.84,.12-2.2-.04-4.39,.16-6.58,.35-.74-.37-1.54-.27-2.31-.21-3.13,.23-6.27,.29-9.41,.26-1.74-.02-3.49-.01-5.23,0-1.04,0-2.09,.05-3.13,.08Z"/>
    <path class="cls-2" d="M490.32,93.3c1.04-.03,2.09-.07,3.13-.08,1.74-.01,3.49-.02,5.23,0,3.14,.03,6.28-.03,9.41-.26,.77-.06,1.57-.16,2.31,.21-.47,1.45-.49,2.94-.48,4.44,.07,16.18,.12,32.36,.18,48.54,0,1.41-.09,2.81-.38,4.19-.8,3.79-2.92,6.52-6.43,8.17-.96,.45-1.98,.71-2.99,1.02-1.46,.45-2.79,.13-4.08-.48-1.78-.85-3.22-2.13-4.32-3.77-.74-1.11-1.24-2.32-1.31-3.68-.04-.79-.14-1.58-.14-2.37-.05-18.64-.09-37.29-.14-55.93Z"/>
    <path class="cls-4" d="M653.77,53.64c.06-.48,.37-.76,.76-.99,4.8-2.89,9.6-5.79,14.4-8.68,.6-.36,1.19-.75,1.82-1.06,.3-.15,.67-.15,1.01-.22,.11,.51,.14,1.06,.36,1.52,.41,.87,.88,1.72,1.4,2.53,1.69,2.67,3.43,5.31,5.11,7.99,2.72,4.31,5.39,8.65,8.12,12.94,2.4,3.78,4.87,7.52,7.31,11.27,1.96,3.02,3.93,6.03,5.9,9.05,.05,.07,.1,.14,.15,.22,1.22,2.08,1.94,4.28,1.91,6.75-.02,2.18-.53,4.16-1.56,6.05-1.12,2.05-2.86,3.28-5.05,3.94-.59,.18-1.19,.29-1.8,.41-.26,.05-.53,.09-.78,.06-2.55-.39-5-1.05-6.87-2.99-.55-.57-1.08-1.16-1.52-1.81-1.56-2.34-3.07-4.71-4.61-7.06-1.83-2.79-3.67-5.57-5.5-8.36-3.86-5.87-7.71-11.74-11.57-17.62-2.6-3.97-5.19-7.94-7.78-11.91-.43-.66-.81-1.35-1.22-2.02Z"/>
    <path class="cls-3" d="M545.54,90.29c.19-.17,.36-.43,.58-.5,.75-.22,1.51-.42,2.29-.54,3.69-.6,7.39-1.17,11.09-1.75,1.89-.3,3.78-.6,5.66-.9,2.3,11.99,4.75,23.96,7.24,35.92,1.26,6.02,2.43,12.06,3.67,18.08,.22,1.07,.11,2.1-.09,3.14-.31,1.56-.87,3.05-1.63,4.44-1.75,3.17-4.47,4.91-8.06,5.2-2,.16-3.82-.5-5.4-1.73-1.87-1.45-3.12-3.33-3.69-5.63-.55-2.22-1.02-4.45-1.53-6.68-2-8.65-3.61-17.38-5.36-26.08-.89-4.39-1.89-8.76-2.8-13.15-.68-3.27-1.31-6.55-1.96-9.82Z"/>
    <path class="cls-7" d="M600.49,76.98c.21-.15,.4-.34,.64-.43,5.83-2.14,11.67-4.27,17.5-6.4,.08-.03,.17-.02,.26-.02,1.46,3.58,2.91,7.16,4.38,10.74,4.42,10.72,8.85,21.44,13.27,32.16,.87,2.11,1.75,4.22,2.62,6.33,.61,1.48,.94,3.01,.91,4.62-.08,4.55-2.25,7.85-6.1,10.09-1.41,.82-2.95,1.06-4.58,.73-3.11-.61-5.55-2.17-7.09-4.97-.72-1.3-1.36-2.66-1.93-4.04-2.84-6.81-5.67-13.63-8.48-20.45-3.18-7.72-6.34-15.44-9.48-23.18-.69-1.71-1.28-3.46-1.91-5.19Z"/>
    <path class="cls-8" d="M434.27,86.91c2.12-.02,4.16,.56,6.23,.86,3.89,.57,7.77,1.25,11.66,1.87,.71,.11,1.35,.34,1.94,.74-.49,2.5-1,4.99-1.45,7.5-1.22,6.83-2.43,13.66-3.59,20.5-.98,5.71-1.86,11.44-2.85,17.16-.45,2.6-1.02,5.17-1.55,7.75-.23,1.12-.59,2.22-1.14,3.22-1.94,3.51-4.87,5.44-8.94,5.55-1.7,.05-3.3-.31-4.87-.97-2.1-.89-3.38-2.46-3.98-4.62-.31-1.1-.53-2.22-.46-3.38,.06-.96,.09-1.93,.18-2.89,.39-4.29,1.24-8.52,2.02-12.75,.48-2.59,.97-5.18,1.38-7.78,.77-4.95,1.59-9.88,2.51-14.81,.76-4.06,1.47-8.12,2.15-12.2,.32-1.91,.52-3.83,.77-5.75Z"/>
    <path class="cls-1" d="M381.68,71.35c.43-.13,.86-.11,1.27,.06,4.98,2.05,10.12,3.66,15.15,5.57,.64,.25,1.33,.4,1.87,.87-.02,.08-.04,.17-.08,.25-2.75,5.6-5.02,11.42-7.52,17.13-4.22,9.66-8.39,19.35-12.61,29.01-.6,1.37-1.26,2.71-2.03,3.99-1.58,2.61-3.93,4.16-6.89,4.92-4.97,1.27-8.76-1.51-10.45-5.43-.91-2.12-.84-4.29-.02-6.43,.41-1.07,.87-2.11,1.33-3.16,3.41-7.91,6.82-15.81,10.24-23.72,2.96-6.86,5.94-13.71,8.89-20.57,.34-.8,.57-1.66,.84-2.49Z"/>
    <path class="cls-5" d="M329.63,45.25c.34,.03,.72,0,1.03,.11,.48,.19,.93,.47,1.38,.74,4.28,2.54,8.57,5.09,12.84,7.65,.44,.26,.82,.62,1.24,.94-.66,1.04-1.3,2.09-1.98,3.11-6.46,9.75-12.93,19.5-19.38,29.26-2.14,3.23-4.24,6.48-6.37,9.71-.58,.88-1.19,1.74-1.83,2.58-.69,.92-1.53,1.7-2.46,2.38-1.46,1.05-3.07,1.68-4.87,1.86-1.6,.16-3.16-.12-4.71-.42-.78-.15-1.49-.53-2.14-1-2.44-1.78-3.66-4.24-3.77-7.21-.06-1.51,.36-2.97,1.14-4.28,.49-.83,1.01-1.65,1.54-2.46,3.99-6.11,7.98-12.23,11.99-18.33,4.94-7.49,9.9-14.97,14.85-22.45,.49-.73,1-1.45,1.5-2.17Z"/>
  </g>
  <g>
    <path d="M341.85,220.09c-.03,3.66-.51,6.84-1.42,9.53-.92,2.69-2.1,4.98-3.54,6.86-1.45,1.88-3.07,3.41-4.87,4.59-1.8,1.18-3.58,2.1-5.34,2.77-1.76,.67-3.41,1.12-4.94,1.35-1.53,.23-2.76,.33-3.69,.3-1.23,0-2.68-.1-4.34-.3-1.66-.2-3.39-.6-5.16-1.2s-3.53-1.46-5.26-2.57c-1.73-1.11-3.26-2.6-4.59-4.47-1.33-1.86-2.39-4.16-3.19-6.89s-1.16-5.99-1.1-9.78c.07-3.43,.53-6.42,1.4-8.98,.86-2.56,1.98-4.77,3.34-6.61,1.36-1.85,2.9-3.35,4.61-4.52s3.47-2.08,5.27-2.74c2.2-.8,4.35-1.27,6.46-1.42,2.11-.15,3.99-.16,5.64-.02s2.96,.32,3.94,.55c.98,.23,1.4,.35,1.27,.35-1.76,0-3.55,.09-5.36,.27-1.81,.18-3.56,.56-5.24,1.12-1.68,.57-3.25,1.38-4.72,2.44-1.46,1.07-2.75,2.48-3.87,4.24-1.12,1.76-2,3.92-2.67,6.46s-1.03,5.6-1.1,9.16c-.03,1.1,0,2.4,.1,3.92,.1,1.51,.32,3.09,.65,4.72,.33,1.63,.82,3.24,1.47,4.82,.65,1.58,1.53,3,2.64,4.27,1.11,1.26,2.5,2.29,4.14,3.07s3.63,1.17,5.96,1.17c.4,0,1.02-.07,1.87-.2s1.8-.43,2.84-.9c1.05-.47,2.13-1.17,3.24-2.12,1.11-.95,2.15-2.23,3.09-3.84,.95-1.61,1.73-3.63,2.34-6.04,.62-2.41,.96-5.33,1.02-8.76,.07-3.23-.13-6-.6-8.31s-1.07-4.26-1.82-5.84c-.75-1.58-1.57-2.84-2.47-3.79-.9-.95-1.76-1.68-2.6-2.2-.83-.52-1.55-.86-2.17-1.05-.62-.18-1.02-.31-1.22-.37,1.1-.27,2.25-.42,3.44-.45,1.03-.03,2.2,.07,3.49,.3,1.3,.23,2.63,.73,3.99,1.5,1.13,.67,2.25,1.55,3.34,2.64s2.07,2.45,2.92,4.07c.85,1.61,1.52,3.49,2.02,5.64,.5,2.15,.75,4.57,.75,7.26Z"/>
    <path d="M361.22,212.31c1.53-.47,2.99-.68,4.39-.65,1.83,.03,3.58,.39,5.27,1.07,1.68,.68,3.17,1.68,4.47,2.99,1.3,1.31,2.32,2.94,3.07,4.89,.75,1.95,1.09,4.2,1.02,6.76-.07,2.66-.49,5.11-1.27,7.36-.78,2.25-1.93,4.18-3.44,5.79-1.51,1.61-3.37,2.87-5.56,3.77-2.2,.9-4.74,1.31-7.63,1.25-.4,0-1.09-.02-2.07-.07s-2.05-.18-3.19-.4c-1.15-.22-2.3-.56-3.44-1.02-1.15-.47-2.09-1.13-2.82-2v-14.87c.33-.3,.83-.7,1.5-1.2,.66-.5,1.36-1,2.07-1.5,.71-.5,1.38-.95,2-1.35,.62-.4,1.04-.67,1.27-.8l-.2,11.43c0,.6,.07,1.38,.2,2.35s.43,1.9,.9,2.82c.47,.91,1.14,1.7,2.02,2.37,.88,.67,2.07,1,3.57,1,1.66,0,3.05-.4,4.17-1.2,1.11-.8,2.01-1.85,2.69-3.14s1.16-2.78,1.42-4.44c.27-1.66,.37-3.34,.3-5.04-.07-1.46-.22-2.87-.45-4.22-.23-1.35-.62-2.54-1.15-3.57-.53-1.03-1.23-1.86-2.1-2.5-.87-.63-1.94-.96-3.22-1s-2.8,.27-4.57,.92c-1.76,.65-3.81,1.72-6.14,3.22-1.6,1.03-2.99,2.09-4.19,3.17-1.2,1.08-2.23,2.07-3.09,2.97-1,1.07-1.86,2.08-2.59,3.04,.17-2.23,.77-4.32,1.82-6.26,1.05-1.95,2.35-3.7,3.92-5.26-.03-2.6-.07-4.92-.1-6.99,0-.9,0-1.78-.02-2.65-.02-.86-.03-1.65-.05-2.37-.02-.71-.03-1.33-.05-1.85-.02-.52-.02-.86-.02-1.02-.03-.8-.12-1.45-.25-1.95-.13-.5-.3-.9-.5-1.2-.2-.3-.4-.52-.6-.65-.2-.13-.38-.23-.55-.3-.37-.13-.78-.24-1.25-.32-.47-.08-1.01-.16-1.65-.22-.13,0-.29-.09-.47-.27s-.27-.46-.27-.82c0-.1,.03-.3,.1-.6,.07-.3,.28-.45,.65-.45,.67,.03,1.39,0,2.17-.12,.78-.12,1.6-.21,2.47-.27,.86-.1,1.73-.24,2.6-.42,.86-.18,1.73-.41,2.59-.67,.7-.17,1.13-.12,1.3,.15,.23,.27,.36,.53,.4,.8l-.05,17.42c1.56-.8,3.11-1.43,4.64-1.9Z"/>
    <path d="M392.55,245.02c-1.43-.38-2.64-.89-3.62-1.52-.98-.63-1.76-1.35-2.32-2.15-.57-.8-.98-1.63-1.25-2.49-.67-2-.73-4.26-.2-6.79,.53,1.86,1.3,3.54,2.3,5.04,.43,.63,.93,1.26,1.5,1.87s1.21,1.16,1.95,1.62c.73,.47,1.55,.85,2.47,1.15,.91,.3,1.92,.45,3.02,.45,1.16-.03,2.18-.22,3.04-.55,.73-.27,1.41-.69,2.05-1.27,.63-.58,.93-1.4,.9-2.47-.03-1.23-.42-2.26-1.15-3.09-.73-.83-1.65-1.55-2.74-2.17s-2.32-1.17-3.67-1.67-2.64-1.02-3.87-1.57-2.34-1.16-3.34-1.85c-1-.68-1.71-1.54-2.15-2.57-.2-.5-.37-1.05-.5-1.65-.13-.6-.2-1.26-.2-2,0-1.43,.27-2.67,.8-3.72,.53-1.05,1.21-1.94,2.05-2.67,.83-.73,1.78-1.31,2.84-1.75,1.06-.43,2.16-.73,3.29-.9,1.13-.17,2.25-.22,3.34-.15,1.1,.07,2.1,.22,2.99,.45,.5,.17,1.02,.39,1.57,.67,.55,.28,1.14,.61,1.77,.97,.17,.1,.4,.1,.7,0,.3-.17,.55-.55,.75-1.15,.03-.1,.11-.22,.22-.35,.12-.13,.42-.17,.92-.1,.43,.03,.69,.12,.77,.25,.08,.13,.09,.23,.02,.3-.1,.27-.2,.7-.3,1.3-.1,.6-.17,1.31-.22,2.15-.05,.83-.07,1.76-.05,2.77,.02,1.01,.07,2.04,.17,3.07,0,.13-.12,.24-.38,.33-.25,.08-.42,.12-.52,.12-.2,.03-.41,0-.62-.08-.22-.08-.34-.16-.38-.22-.5-2.46-1.33-4.37-2.49-5.74-1.2-1.33-3.08-2-5.64-2-.43,0-.98,.04-1.65,.12-.67,.08-1.31,.29-1.92,.62-.62,.33-1.16,.82-1.62,1.45-.47,.63-.72,1.5-.75,2.59-.03,.6,.07,1.12,.32,1.57,.25,.45,.61,.86,1.07,1.22,.3,.23,.87,.54,1.72,.92,.85,.38,1.74,.76,2.67,1.12,.93,.37,1.77,.7,2.52,1s1.21,.47,1.37,.5c2.1,.77,3.72,1.67,4.86,2.72s2,2.07,2.55,3.07c.55,1,.88,1.91,1,2.74,.12,.83,.17,1.4,.17,1.7,0,1.7-.37,3.14-1.12,4.32s-1.67,2.14-2.77,2.87-2.29,1.26-3.57,1.6c-1.28,.33-2.44,.52-3.47,.55h-.05c-2.03,0-3.76-.19-5.19-.57Z"/>
    <path d="M424.38,215.75c-.96,.6-1.73,1.36-2.29,2.29-.57,.93-.99,1.86-1.27,2.79-.28,.93-.46,1.74-.52,2.42s-.1,1.07-.1,1.17c0,.33,.1,.5,.3,.5h12.67c.2,0,.31-.28,.32-.85,.02-.57-.09-1.28-.32-2.15-.23-.86-.63-1.8-1.2-2.82-.57-1.01-1.35-1.99-2.34-2.92-.73-.66-1.55-1.26-2.44-1.77-.9-.52-1.75-.96-2.55-1.32-.93-.4-1.88-.77-2.84-1.1,.93-.27,1.83-.46,2.69-.57,.86-.12,1.68-.14,2.44-.07,1.63,.17,3.08,.49,4.34,.97,1.26,.48,2.38,1.08,3.34,1.8,.96,.72,1.8,1.51,2.5,2.37,.7,.87,1.28,1.73,1.75,2.6,1.1,2.06,1.81,4.32,2.15,6.79,0,.96-.35,1.45-1.05,1.45h-19.56c-.23,0-.35,.08-.35,.25-.03,2.46,.13,4.5,.5,6.11,.37,1.61,.86,2.93,1.47,3.94,.62,1.02,1.31,1.76,2.07,2.25,.77,.48,1.52,.82,2.27,1,.75,.18,1.45,.27,2.1,.27h1.57c1.16,0,2.3-.11,3.42-.32,1.11-.22,2.12-.47,3.02-.75,.9-.28,1.63-.55,2.2-.8,.57-.25,.88-.39,.95-.42,.33-.13,.57-.13,.72,0,.15,.13,.23,.31,.25,.52,.02,.22,0,.44-.05,.67-.05,.23-.09,.37-.12,.4-.37,.47-.84,1-1.42,1.6s-1.32,1.16-2.22,1.67c-.9,.52-2.01,.95-3.34,1.3-1.33,.35-2.93,.52-4.79,.52-3.16,0-5.86-.62-8.08-1.87-2.23-1.25-3.98-2.85-5.26-4.81-1.28-1.96-2.1-4.15-2.44-6.56-.35-2.41-.25-4.8,.3-7.16s1.55-4.55,3.02-6.56c1.46-2.01,3.36-3.6,5.69-4.77,.37,.27,.73,.52,1.1,.75,.3,.2,.58,.41,.85,.62,.27,.22,.47,.41,.6,.57Z"/>
    <path d="M451.93,223.54c1-.47,2.09-.95,3.27-1.45,1.18-.5,2.32-1,3.42-1.5,0,3.43,.02,6.5,.05,9.23,0,1.17,0,2.31,.02,3.44,.02,1.13,.02,2.15,.02,3.07s0,1.67,.03,2.27c.02,.6,.02,.95,.02,1.05,.07,.93,.37,1.64,.9,2.12,.53,.48,1.15,.84,1.85,1.07,.7,.23,1.41,.38,2.12,.45,.71,.07,1.29,.12,1.72,.15,.37,.07,.6,.23,.7,.5,.1,.27,.15,.48,.15,.65,0,.1-.1,.29-.3,.57s-.38,.42-.55,.42c-.5,0-1.23-.03-2.2-.07-.96-.05-1.95-.11-2.94-.17s-1.94-.12-2.82-.17c-.88-.05-1.49-.07-1.82-.07-.77,0-1.51,.02-2.25,.05s-1.48,.1-2.25,.2c-.77,.07-1.51,.11-2.25,.12-.73,.02-1.48,.06-2.24,.12-.33,0-.54-.14-.62-.42s-.12-.47-.12-.57c-.03-.2,.02-.42,.15-.67,.13-.25,.37-.41,.7-.47,.33-.03,.78-.09,1.35-.17s1.14-.25,1.72-.5c.58-.25,1.08-.61,1.5-1.07,.42-.47,.64-1.1,.67-1.9,0-.37,.02-.76,.05-1.2,.03-.43,.05-.93,.05-1.5-.03-2.2-.05-4.22-.05-6.09v-2.37c0-.78,0-1.51-.02-2.2-.02-.68-.03-1.28-.03-1.8v-1.12Zm-3.64-.55c.37-.47,.9-1.04,1.6-1.72,.7-.68,1.4-1.35,2.1-2.02-.07-.2-.12-.39-.17-.57s-.11-.36-.17-.52c-.1-.17-.22-.35-.37-.55-.15-.2-.38-.39-.7-.57-.32-.18-.74-.34-1.27-.47-.53-.13-1.22-.2-2.05-.2-.27,0-.44-.13-.52-.4-.08-.27-.12-.45-.12-.55s.04-.28,.12-.55c.08-.27,.27-.41,.57-.45,.47,0,1-.03,1.6-.07,.6-.05,1.28-.11,2.05-.17,.76-.07,1.54-.17,2.32-.3,.78-.13,1.57-.32,2.37-.55,.66-.17,1.16-.18,1.5-.05,.37,.13,.53,.5,.5,1.1l.05,.8c.73-.43,1.7-.91,2.89-1.42,1.2-.52,2.46-.91,3.79-1.2,1.33-.28,2.64-.37,3.94-.25,1.3,.12,2.41,.61,3.34,1.47,.5,.47,.86,1.01,1.07,1.65,.22,.63,.32,1.31,.32,2.05,0,.83-.32,1.56-.95,2.2-.6,.67-1.46,1-2.6,1-1.03,0-1.78-.27-2.25-.8-.43-.53-.65-1.1-.65-1.7,0-.67-.12-1.18-.35-1.55-.3-.37-.87-.55-1.7-.55-.23,0-.64,.1-1.22,.3-.58,.2-1.27,.46-2.07,.77-.8,.32-1.67,.68-2.62,1.1-.95,.42-1.9,.84-2.87,1.27-2.26,1.03-4.76,2.2-7.49,3.49Z"/>
    <path d="M484.96,219.94c-.47-1.23-1.01-2.2-1.65-2.92-.63-.72-1.24-1.25-1.82-1.6-.58-.35-1.29-.62-2.12-.82-.33-.03-.62-.17-.85-.4s-.37-.45-.4-.65c0-.07,0-.17,.02-.32,.02-.15,.05-.3,.1-.45,.05-.15,.12-.27,.2-.37,.08-.1,.21-.15,.37-.15,.4,0,1.01,.03,1.85,.1,.83,.07,1.7,.13,2.62,.2s1.78,.13,2.6,.2c.81,.07,1.4,.1,1.77,.1,.4,0,1-.03,1.8-.1,.8-.07,1.64-.14,2.52-.22,.88-.08,1.72-.16,2.52-.22,.8-.07,1.4-.12,1.8-.15,.43,0,.7,.16,.8,.47,.1,.32,.15,.61,.15,.87-.07,.47-.17,.77-.3,.92-.13,.15-.42,.21-.85,.17-1.43-.07-2.42,.15-2.97,.65s-.87,1.08-.97,1.75c-.13,.77-.05,1.66,.25,2.69,.53,1.93,1.46,4.31,2.79,7.14,1.13,2.46,2.74,5.56,4.82,9.28s4.85,8.18,8.31,13.37c-4.09-1.93-7.43-4.07-10.03-6.41-2.59-2.35-4.72-4.8-6.39-7.36-1.66-2.56-3-5.18-4.02-7.86-1.01-2.68-1.99-5.31-2.92-7.91Zm27.84-2.35c-.53,.9-1.07,1.88-1.6,2.94-.53,1.07-1.06,2.17-1.57,3.32-.52,1.15-1.01,2.29-1.5,3.44-.48,1.15-.94,2.25-1.37,3.32-1.03,2.53-2.01,5.07-2.94,7.63-.33-.67-.61-1.24-.82-1.72-.22-.48-.46-.96-.72-1.42,.76-1.86,1.46-3.59,2.1-5.19,.27-.7,.54-1.4,.82-2.1,.28-.7,.55-1.37,.8-2.02,.25-.65,.47-1.24,.65-1.77s.32-.96,.42-1.3c.2-.7,.42-1.36,.65-2,.23-.63,.41-1.24,.55-1.82,.13-.58,.18-1.13,.15-1.65-.03-.52-.22-1.02-.55-1.52-.3-.47-.68-.78-1.15-.95-.47-.17-1.1-.28-1.9-.35-.37,0-.61-.13-.72-.4-.12-.27-.17-.47-.17-.6,0-.17,.04-.4,.12-.7,.08-.3,.29-.43,.62-.4,.33,0,.83,.03,1.5,.07,.67,.05,1.35,.1,2.05,.15,.7,.05,1.36,.09,2,.12,.63,.03,1.1,.05,1.4,.05s.71-.02,1.25-.05c.53-.03,1.1-.07,1.7-.12s1.17-.09,1.72-.12c.55-.03,.99-.07,1.32-.1,.36-.03,.61,.09,.72,.37,.12,.28,.17,.49,.17,.62-.07,.6-.22,.92-.45,.97-.23,.05-.55,.09-.95,.12-.1,.03-.31,.09-.62,.17-.32,.08-.68,.23-1.1,.45-.42,.22-.86,.52-1.32,.92-.47,.4-.88,.93-1.25,1.6Z"/>
    <path d="M546.68,232.77c0,.4,0,1.01,.03,1.85,.02,.83,.05,1.67,.1,2.52,.05,.85,.11,1.61,.17,2.3s.15,1.11,.25,1.27c.23,.5,.57,.8,1.02,.9,.45,.1,.9,.1,1.35,0,.45-.1,.86-.24,1.25-.42,.38-.18,.66-.33,.82-.42,.07-.07,.17-.08,.33-.05,.15,.03,.32,.18,.52,.45,.2,.23,.28,.45,.25,.65-.03,.2-.08,.33-.15,.4-.47,.57-1.04,1.12-1.72,1.65-.68,.53-1.45,.95-2.3,1.25s-1.77,.42-2.77,.37c-1-.05-2.03-.39-3.09-1.02-.53-.33-.97-.72-1.3-1.17-.33-.45-.62-.92-.85-1.42-.13-.23-.27-.25-.4-.05-.3,.27-.72,.61-1.27,1.02s-1.24,.82-2.07,1.22c-.83,.4-1.82,.74-2.97,1.02-1.15,.28-2.49,.42-4.02,.42-1.86,.03-3.34-.25-4.44-.85-1.1-.6-1.93-1.33-2.5-2.2-.57-.86-.93-1.77-1.1-2.72-.17-.95-.25-1.75-.25-2.42,.17-2.03,.93-3.86,2.3-5.49,.57-.7,1.3-1.38,2.2-2.05,.9-.67,2-1.26,3.32-1.8,1.31-.53,2.85-.97,4.62-1.32,1.76-.35,3.81-.56,6.14-.62,.23-2.23,.18-4.19-.15-5.89-.13-.73-.33-1.44-.6-2.12-.27-.68-.63-1.29-1.1-1.82-.47-.53-1.04-.95-1.72-1.25-.68-.3-1.49-.43-2.42-.4-1.23,.07-2.23,.24-2.99,.52-.77,.28-1.36,.61-1.77,.99-.42,.38-.69,.76-.82,1.14-.13,.38-.2,.7-.2,.97,0,.53,.15,1.04,.45,1.54,.33,.43,.5,.93,.5,1.49,0,.17-.05,.4-.15,.7-.1,.3-.28,.6-.55,.92s-.62,.59-1.05,.82c-.43,.23-.96,.35-1.6,.35-.77,0-1.37-.13-1.82-.4-.45-.27-.8-.59-1.05-.97-.25-.38-.42-.77-.5-1.17-.08-.4-.12-.71-.12-.95,0-.3,.07-.77,.2-1.42,.13-.65,.45-1.35,.95-2.12,.5-.76,1.25-1.53,2.24-2.29,1-.76,2.38-1.43,4.14-2,.37-.1,1.08-.23,2.15-.4s2.25-.23,3.57-.2c1.31,.03,2.68,.23,4.09,.6,1.41,.37,2.65,1.01,3.72,1.95,1.06,.9,1.86,2.05,2.39,3.47,.53,1.41,.8,3.12,.8,5.11v3.79c1.26,.47,2.39,1.2,3.39,2.2s1.78,2.41,2.34,4.24c-2.33-1.46-4.69-2.54-7.09-3.24-1.03-.3-2.11-.53-3.24-.7-1.13-.17-2.29-.21-3.47-.12s-2.36,.32-3.54,.72c-1.18,.4-2.32,1.01-3.42,1.85-1.17,.87-2,1.77-2.5,2.72-.5,.95-.73,1.85-.7,2.7,.03,.85,.3,1.6,.8,2.27s1.17,1.14,2.02,1.42c.85,.28,1.84,.33,2.97,.15,1.13-.18,2.34-.69,3.64-1.52l2-1.45v-6.74c1.3,0,2.48,.13,3.54,.38,1.06,.25,2.13,.56,3.19,.92Z"/>
    <path d="M571.58,212.41c1.23-.13,2.6-.21,4.12-.22,1.51-.02,3.07,.03,4.67,.12l-.05,5.64c-1.2-.33-2.46-.58-3.79-.75-1.16-.17-2.49-.24-3.99-.22-1.5,.02-3.08,.21-4.74,.57-.93,.23-2.1,.7-3.49,1.4-1.4,.7-2.78,1.43-4.14,2.2-1.6,.9-3.24,1.88-4.94,2.94,.33-1.4,.93-2.76,1.8-4.09,.76-1.16,1.86-2.38,3.29-3.64,1.43-1.26,3.34-2.4,5.74-3.39,.07-.03,.29-.21,.67-.52,.38-.31,.66-.86,.82-1.62,.13-.5,.28-1.06,.45-1.67,.17-.61,.32-1.32,.45-2.12,.03-.13,.17-.3,.4-.5,.23-.2,.65-.32,1.25-.35,.47,0,.82,.07,1.07,.22,.25,.15,.39,.22,.42,.22v5.79Zm0,21.66c-.07,1.9,.06,3.4,.38,4.52,.32,1.12,.78,1.93,1.4,2.44,.61,.52,1.38,.78,2.29,.8,.91,.02,1.94-.16,3.07-.52,.96-.3,1.7-.65,2.2-1.05,.07-.07,.18-.09,.35-.07,.17,.02,.38,.14,.65,.37,.37,.43,.45,.78,.25,1.05-.23,.37-.54,.77-.92,1.22-.38,.45-.89,.87-1.52,1.27-.63,.4-1.44,.74-2.42,1.02s-2.19,.44-3.62,.47c-.8,0-1.71-.07-2.74-.2-1.03-.13-2-.5-2.89-1.1-.9-.6-1.65-1.49-2.24-2.67-.6-1.18-.87-2.8-.8-4.87l-.1-15.67c.7-.4,1.43-.78,2.2-1.15,.67-.3,1.4-.6,2.2-.9s1.58-.5,2.34-.6l-.05,15.62Z"/>
    <path d="M601.27,245.54c-.83,0-1.77-.08-2.82-.25s-2.12-.47-3.22-.92-2.17-1.07-3.22-1.87c-1.05-.8-2-1.82-2.84-3.07-.85-1.25-1.54-2.77-2.07-4.57-.53-1.8-.82-3.91-.85-6.34-.03-2.29,.23-4.31,.8-6.04,.57-1.73,1.31-3.21,2.25-4.44,.93-1.23,2-2.24,3.19-3.04s2.39-1.41,3.59-1.85c1.46-.53,2.85-.86,4.17-.97,1.31-.12,2.45-.13,3.42-.05s1.71,.21,2.25,.37c.53,.17,.75,.25,.65,.25-2.36,.37-4.38,1.08-6.06,2.15-1.68,1.07-3.04,2.34-4.09,3.82s-1.82,3.09-2.32,4.84c-.5,1.75-.77,3.51-.82,5.29s.12,3.5,.52,5.16c.4,1.66,.95,3.14,1.65,4.42,.7,1.28,1.55,2.31,2.55,3.09,1,.78,2.08,1.17,3.24,1.17,.27,0,.66-.05,1.17-.15s1.08-.32,1.7-.65c.62-.33,1.26-.82,1.92-1.47,.66-.65,1.26-1.53,1.8-2.64,.53-1.11,.97-2.49,1.32-4.12,.35-1.63,.52-3.61,.52-5.94,0-1.16-.11-2.21-.32-3.14-.22-.93-.49-1.77-.82-2.52-.33-.75-.71-1.4-1.12-1.97-.42-.57-.84-1.06-1.27-1.5-1.03-.96-2.2-1.7-3.49-2.2,2.13-.43,4.11-.45,5.94-.05,.77,.17,1.54,.44,2.32,.82,.78,.38,1.52,.92,2.22,1.6,.7,.68,1.31,1.54,1.85,2.57,.53,1.03,.95,2.28,1.25,3.74,.03,.5,.08,.96,.15,1.4,.07,.37,.12,.72,.15,1.07,.03,.35,.05,.61,.05,.77-.03,2.46-.34,4.6-.92,6.41-.58,1.81-1.33,3.36-2.25,4.64-.91,1.28-1.95,2.32-3.09,3.12-1.15,.8-2.29,1.42-3.42,1.87-1.13,.45-2.19,.76-3.17,.92-.98,.17-1.79,.25-2.42,.25Z"/>
    <path d="M626.02,223.54c1-.47,2.09-.95,3.27-1.45,1.18-.5,2.32-1,3.42-1.5,0,3.43,.02,6.5,.05,9.23,0,1.17,0,2.31,.02,3.44,.02,1.13,.02,2.15,.02,3.07s0,1.67,.03,2.27c.02,.6,.02,.95,.02,1.05,.07,.93,.37,1.64,.9,2.12,.53,.48,1.15,.84,1.85,1.07,.7,.23,1.41,.38,2.12,.45,.71,.07,1.29,.12,1.72,.15,.37,.07,.6,.23,.7,.5,.1,.27,.15,.48,.15,.65,0,.1-.1,.29-.3,.57s-.38,.42-.55,.42c-.5,0-1.23-.03-2.2-.07-.96-.05-1.95-.11-2.94-.17s-1.94-.12-2.82-.17c-.88-.05-1.49-.07-1.82-.07-.77,0-1.51,.02-2.25,.05s-1.48,.1-2.25,.2c-.77,.07-1.51,.11-2.25,.12-.73,.02-1.48,.06-2.24,.12-.33,0-.54-.14-.62-.42s-.12-.47-.12-.57c-.03-.2,.02-.42,.15-.67,.13-.25,.37-.41,.7-.47,.33-.03,.78-.09,1.35-.17s1.14-.25,1.72-.5c.58-.25,1.08-.61,1.5-1.07,.42-.47,.64-1.1,.67-1.9,0-.37,.02-.76,.05-1.2,.03-.43,.05-.93,.05-1.5-.03-2.2-.05-4.22-.05-6.09v-2.37c0-.78,0-1.51-.02-2.2-.02-.68-.03-1.28-.03-1.8v-1.12Zm-3.64-.55c.37-.47,.9-1.04,1.6-1.72,.7-.68,1.4-1.35,2.1-2.02-.07-.2-.12-.39-.17-.57s-.11-.36-.17-.52c-.1-.17-.22-.35-.37-.55-.15-.2-.38-.39-.7-.57-.32-.18-.74-.34-1.27-.47-.53-.13-1.22-.2-2.05-.2-.27,0-.44-.13-.52-.4-.08-.27-.12-.45-.12-.55s.04-.28,.12-.55c.08-.27,.27-.41,.57-.45,.47,0,1-.03,1.6-.07,.6-.05,1.28-.11,2.05-.17,.76-.07,1.54-.17,2.32-.3,.78-.13,1.57-.32,2.37-.55,.66-.17,1.16-.18,1.5-.05,.37,.13,.53,.5,.5,1.1l.05,.8c.73-.43,1.7-.91,2.89-1.42,1.2-.52,2.46-.91,3.79-1.2,1.33-.28,2.64-.37,3.94-.25,1.3,.12,2.41,.61,3.34,1.47,.5,.47,.86,1.01,1.07,1.65,.22,.63,.32,1.31,.32,2.05,0,.83-.32,1.56-.95,2.2-.6,.67-1.46,1-2.6,1-1.03,0-1.78-.27-2.25-.8-.43-.53-.65-1.1-.65-1.7,0-.67-.12-1.18-.35-1.55-.3-.37-.87-.55-1.7-.55-.23,0-.64,.1-1.22,.3-.58,.2-1.27,.46-2.07,.77-.8,.32-1.67,.68-2.62,1.1-.95,.42-1.9,.84-2.87,1.27-2.26,1.03-4.76,2.2-7.49,3.49Z"/>
    <path d="M665.29,225.38v9.41c0,1.31,0,2.39,.02,3.22,.02,.83,.03,1.3,.03,1.4,0,.9,.17,1.61,.52,2.12,.35,.52,.76,.92,1.22,1.2,.47,.28,.94,.47,1.42,.55,.48,.08,.86,.12,1.12,.12,.37,0,.6,.15,.7,.46,.1,.31,.15,.53,.15,.66s-.06,.33-.17,.59c-.12,.26-.34,.4-.67,.43-.2,0-.64-.02-1.32-.07-.68-.05-1.42-.11-2.22-.17s-1.57-.12-2.32-.17-1.29-.07-1.62-.07c-.37,0-.96,.02-1.77,.07-.81,.05-1.67,.11-2.57,.17-.9,.07-1.74,.12-2.52,.17-.78,.05-1.34,.07-1.67,.07s-.55-.14-.65-.41c-.1-.27-.15-.48-.15-.61s.06-.36,.17-.66,.34-.46,.67-.46c.3,0,.71-.04,1.25-.12,.53-.08,1.06-.25,1.6-.5,.53-.25,1-.62,1.4-1.1s.62-1.12,.65-1.92v-21.56c-.77,.13-1.58,.28-2.44,.45-.73,.17-1.53,.37-2.4,.6-.86,.23-1.68,.48-2.44,.75l-1.95,.65c.33-.6,.82-1.38,1.47-2.34,.65-.96,1.58-1.92,2.79-2.87,1.21-.95,2.77-1.76,4.67-2.45,1.9-.68,4.24-1.02,7.04-1.02v13.42Zm-3.79-19.96c-1.2,0-2.21-.37-3.04-1.1-.83-.7-1.25-1.6-1.25-2.7s.4-1.98,1.2-2.74c.83-.76,1.81-1.15,2.94-1.15s2.1,.38,2.79,1.15c.73,.77,1.1,1.7,1.1,2.79s-.35,1.95-1.05,2.65c-.7,.73-1.6,1.1-2.69,1.1Z"/>
    <path d="M690.34,245.54c-.83,0-1.77-.08-2.82-.25s-2.12-.47-3.22-.92-2.17-1.07-3.22-1.87c-1.05-.8-2-1.82-2.84-3.07-.85-1.25-1.54-2.77-2.07-4.57-.53-1.8-.82-3.91-.85-6.34-.03-2.29,.23-4.31,.8-6.04,.57-1.73,1.31-3.21,2.25-4.44,.93-1.23,2-2.24,3.19-3.04s2.39-1.41,3.59-1.85c1.46-.53,2.85-.86,4.17-.97,1.31-.12,2.45-.13,3.42-.05s1.71,.21,2.25,.37c.53,.17,.75,.25,.65,.25-2.36,.37-4.38,1.08-6.06,2.15-1.68,1.07-3.04,2.34-4.09,3.82s-1.82,3.09-2.32,4.84c-.5,1.75-.77,3.51-.82,5.29s.12,3.5,.52,5.16c.4,1.66,.95,3.14,1.65,4.42,.7,1.28,1.55,2.31,2.55,3.09,1,.78,2.08,1.17,3.24,1.17,.27,0,.66-.05,1.17-.15s1.08-.32,1.7-.65c.62-.33,1.26-.82,1.92-1.47,.66-.65,1.26-1.53,1.8-2.64,.53-1.11,.97-2.49,1.32-4.12,.35-1.63,.52-3.61,.52-5.94,0-1.16-.11-2.21-.32-3.14-.22-.93-.49-1.77-.82-2.52-.33-.75-.71-1.4-1.12-1.97-.42-.57-.84-1.06-1.27-1.5-1.03-.96-2.2-1.7-3.49-2.2,2.13-.43,4.11-.45,5.94-.05,.77,.17,1.54,.44,2.32,.82,.78,.38,1.52,.92,2.22,1.6,.7,.68,1.31,1.54,1.85,2.57,.53,1.03,.95,2.28,1.25,3.74,.03,.5,.08,.96,.15,1.4,.07,.37,.12,.72,.15,1.07,.03,.35,.05,.61,.05,.77-.03,2.46-.34,4.6-.92,6.41-.58,1.81-1.33,3.36-2.25,4.64-.91,1.28-1.95,2.32-3.09,3.12-1.15,.8-2.29,1.42-3.42,1.87-1.13,.45-2.19,.76-3.17,.92-.98,.17-1.79,.25-2.42,.25Z"/>
  </g>
  <g>
    <path d="M307.23,267.92c.44,.73,.77,1.59,.98,2.57-1.58-1.47-2.98-2.55-4.19-3.25-1.21-.7-2.26-1.11-3.15-1.25-.89-.13-1.63-.04-2.23,.28-.6,.32-1.08,.77-1.44,1.33-.36,.57-.62,1.2-.78,1.9-.16,.7-.24,1.36-.24,1.99,0,1.22,.14,2.19,.42,2.9,.28,.71,.6,1.26,.97,1.63,.37,.38,.73,.62,1.08,.73,.35,.11,.59,.16,.72,.16,.44,.01,.85-.03,1.24-.15,.38-.11,.73-.26,1.03-.43,.3-.17,.55-.35,.76-.53s.36-.33,.46-.45l.04-7.67c.45,.2,.89,.43,1.3,.69s.9,.61,1.45,1.04v.67c0,.31,0,.66,.01,1.05s.01,.8,.02,1.23,.01,.83,.02,1.21,.01,.7,.01,.98v.54c.01,.53,.11,.93,.29,1.19,.18,.27,.39,.46,.63,.58,.24,.11,.48,.17,.73,.18s.43,.01,.58,.01c.03,0,.08,.03,.15,.1,.07,.06,.11,.18,.11,.35,.01,.19-.01,.31-.07,.36-.06,.06-.12,.09-.18,.09-.04,0-.12,0-.22,.02-.11,.01-.22,.02-.34,.03-.12,0-.24,.02-.34,.03-.11,.01-.17,.02-.2,.02s-.22,.03-.57,.1c-.35,.06-.73,.13-1.13,.19-.41,.06-.78,.12-1.13,.18-.35,.06-.53,.09-.54,.09-.16,0-.29-.14-.38-.41-.1-.26-.15-.65-.15-1.17,0-.1-.03-.14-.09-.13-.03,.01-.05,.03-.06,.04s-.03,.03-.06,.04c-.16,.14-.35,.31-.58,.49-.23,.19-.5,.36-.81,.53-.31,.17-.68,.31-1.1,.43-.42,.11-.9,.17-1.44,.17-.14,0-.38-.01-.72-.04-.34-.03-.71-.11-1.13-.24-.42-.13-.86-.33-1.31-.61-.46-.28-.87-.66-1.25-1.15-.38-.49-.69-1.11-.94-1.85-.25-.74-.38-1.65-.39-2.73,0-.23,.03-.62,.1-1.16,.06-.55,.21-1.16,.43-1.83,.22-.67,.54-1.35,.97-2.03,.43-.68,1-1.27,1.73-1.75,.73-.48,1.63-.82,2.7-1,1.08-.18,2.37-.11,3.88,.21,0-.94,0-1.69-.02-2.24s-.02-.96-.02-1.22c0-.67-.2-1.17-.6-1.5-.4-.33-1.04-.48-1.92-.45-.11,0-.19-.07-.22-.2-.04-.13-.05-.23-.05-.29,.01-.06,.04-.15,.06-.27,.03-.12,.1-.18,.21-.18,.17-.01,.35-.03,.53-.04s.38-.03,.58-.04c.88-.06,1.66-.15,2.33-.28,.67-.13,1.1-.22,1.28-.28,.24-.09,.42-.07,.53,.04,.07,.08,.12,.2,.15,.34v8.18c.6,.53,1.12,1.16,1.56,1.89Z"/>
    <path d="M315.47,265.93c-.41,.26-.74,.58-.98,.98-.24,.4-.42,.8-.54,1.2-.12,.4-.2,.74-.22,1.04-.03,.29-.04,.46-.04,.5,0,.14,.04,.21,.13,.21h5.42c.08,0,.13-.12,.14-.36s-.04-.55-.14-.92c-.1-.37-.27-.77-.51-1.21s-.58-.85-1-1.25c-.31-.28-.66-.54-1.05-.76-.38-.22-.75-.41-1.09-.57-.4-.17-.8-.33-1.22-.47,.4-.11,.78-.2,1.15-.25s.72-.06,1.05-.03c.7,.07,1.32,.21,1.86,.42,.54,.21,1.02,.46,1.43,.77,.41,.31,.77,.64,1.07,1.01,.3,.37,.55,.74,.75,1.11,.47,.88,.78,1.85,.92,2.9,0,.41-.15,.62-.45,.62h-8.37c-.1,0-.15,.04-.15,.11-.01,1.05,.06,1.93,.21,2.62,.16,.69,.37,1.25,.63,1.69s.56,.75,.89,.96c.33,.21,.65,.35,.97,.43,.32,.08,.62,.12,.9,.12h.67c.5,0,.99-.05,1.46-.14,.48-.09,.91-.2,1.29-.32,.38-.12,.7-.24,.94-.34,.24-.11,.38-.17,.41-.18,.14-.06,.25-.06,.31,0,.06,.06,.1,.13,.11,.22,0,.09,0,.19-.02,.29-.02,.1-.04,.16-.05,.17-.16,.2-.36,.43-.61,.68-.25,.26-.57,.49-.95,.72s-.86,.41-1.43,.56-1.25,.22-2.05,.22c-1.35,0-2.51-.27-3.46-.8s-1.7-1.22-2.25-2.06-.9-1.78-1.05-2.81-.11-2.05,.13-3.06c.23-1.01,.66-1.95,1.29-2.81,.63-.86,1.44-1.54,2.43-2.04,.16,.11,.31,.22,.47,.32,.13,.08,.25,.17,.36,.27,.11,.09,.2,.17,.26,.25Z"/>
    <path d="M333.88,281.45s.02,.11,.02,.34,.03,.51,.1,.85c.06,.34,.19,.71,.37,1.11s.47,.78,.85,1.13,.89,.65,1.52,.9,1.42,.37,2.39,.39c.1,0,.27-.01,.52-.04s.53-.09,.85-.18c.32-.09,.65-.22,1-.39,.35-.17,.67-.4,.95-.67,.29-.28,.52-.62,.72-1.03s.29-.89,.29-1.44c0-.11-.01-.28-.03-.49s-.1-.44-.25-.69c-.14-.25-.37-.5-.69-.76-.32-.26-.78-.48-1.39-.68s-1.37-.36-2.31-.48c-.93-.12-2.08-.17-3.45-.16,.36,.3,.71,.58,1.05,.84s.65,.49,.92,.69c.31,.24,.61,.46,.9,.66-1.38,.04-2.56-.1-3.53-.44-.98-.34-1.74-.77-2.31-1.29-.56-.53-.93-1.1-1.1-1.73-.17-.63-.14-1.21,.1-1.75,.24-.54,.67-1,1.3-1.38,.63-.38,1.46-.57,2.49-.59-.26-.1-.57-.25-.93-.44-.36-.19-.72-.46-1.06-.8-.34-.34-.63-.78-.87-1.3-.24-.53-.36-1.17-.36-1.92,0-.14,.02-.37,.05-.68,.04-.31,.12-.67,.25-1.06,.13-.39,.32-.8,.59-1.23,.26-.43,.63-.81,1.09-1.16,.46-.35,1.04-.64,1.73-.86,.69-.23,1.53-.34,2.51-.34,.6,0,1.13,.06,1.59,.18,.46,.12,.86,.27,1.21,.44s.63,.35,.85,.52c.23,.18,.41,.33,.53,.46,.1-.1,.27-.25,.52-.46,.25-.21,.57-.39,.95-.56,.38-.16,.83-.27,1.35-.32,.51-.05,1.07,.04,1.69,.27,.06,.03,.13,.07,.22,.13,.09,.06,.18,.13,.27,.22,.08,.09,.16,.21,.21,.34,.06,.14,.08,.29,.08,.46,0,.09-.01,.2-.03,.35s-.07,.3-.16,.44c-.08,.14-.22,.27-.39,.37-.18,.11-.42,.15-.72,.14-.19-.01-.35-.05-.5-.11-.15-.06-.25-.13-.31-.21-.06-.1-.13-.26-.22-.48-.09-.22-.15-.37-.18-.46-.07-.16-.26-.24-.56-.24-.5,.03-.88,.15-1.14,.35s-.43,.37-.5,.5c.07,.11,.18,.32,.33,.63,.15,.31,.27,.68,.36,1.13,.09,.45,.13,.95,.11,1.5-.02,.56-.17,1.14-.46,1.75-.08,.17-.22,.43-.42,.77-.19,.34-.54,.69-1.04,1.05-.5,.36-1.2,.66-2.09,.92-.9,.26-2.08,.38-3.54,.38-.04,0-.15,.04-.32,.12-.17,.08-.34,.18-.51,.31-.17,.13-.31,.27-.42,.42-.11,.15-.11,.3-.01,.44,.1,.14,.33,.27,.7,.37,.37,.11,.94,.17,1.71,.2,.31,.01,.74,.04,1.29,.06s1.15,.09,1.79,.18c.65,.09,1.3,.23,1.96,.43,.66,.19,1.26,.47,1.81,.82,.54,.36,.98,.8,1.32,1.35s.51,1.2,.51,1.99c0,.93-.17,1.71-.5,2.36-.34,.65-.76,1.19-1.27,1.64-.51,.45-1.08,.8-1.7,1.07-.62,.26-1.22,.46-1.79,.6-.58,.13-1.1,.22-1.57,.26-.47,.03-.81,.05-1.03,.03-.19-.01-.48-.03-.9-.03-.41,0-.88-.05-1.41-.13-.53-.08-1.07-.21-1.63-.38-.56-.18-1.08-.44-1.56-.8-.48-.36-.88-.82-1.2-1.38-.32-.56-.49-1.27-.52-2.13,0-.24,.02-.48,.05-.7s.09-.44,.16-.64c.06-.16,.13-.33,.21-.51,.08-.19,.17-.34,.26-.47,.26,.19,.51,.36,.77,.51,.23,.14,.47,.27,.74,.39s.52,.2,.76,.22Zm3.86-7.75c.61-.01,1.11-.15,1.48-.41,.38-.26,.67-.58,.88-.98s.34-.83,.42-1.29c.07-.46,.11-.9,.11-1.32s-.02-.79-.06-1.1c-.04-.31-.06-.51-.06-.6-.06-.61-.19-1.09-.41-1.44-.21-.35-.45-.61-.7-.77s-.51-.26-.76-.3-.44-.05-.57-.05c-.16,0-.37,.01-.64,.04-.27,.03-.55,.13-.83,.31s-.56,.46-.81,.83c-.26,.38-.45,.91-.58,1.61-.01,.09-.04,.28-.07,.59-.04,.31-.05,.66-.05,1.07s.03,.84,.11,1.29c.07,.46,.2,.87,.4,1.25s.46,.69,.81,.93c.35,.24,.8,.36,1.36,.34Z"/>
    <path d="M353.31,265.93c-.41,.26-.74,.58-.98,.98s-.42,.8-.54,1.2-.2,.74-.22,1.04c-.03,.29-.04,.46-.04,.5,0,.14,.04,.21,.13,.21h5.42c.09,0,.13-.12,.14-.36s-.04-.55-.14-.92c-.1-.37-.27-.77-.51-1.21-.24-.43-.58-.85-1-1.25-.31-.28-.66-.54-1.05-.76-.38-.22-.75-.41-1.09-.57-.4-.17-.8-.33-1.22-.47,.4-.11,.78-.2,1.15-.25s.72-.06,1.05-.03c.7,.07,1.32,.21,1.86,.42s1.02,.46,1.43,.77c.41,.31,.77,.64,1.07,1.01,.3,.37,.55,.74,.75,1.11,.47,.88,.78,1.85,.92,2.9,0,.41-.15,.62-.45,.62h-8.37c-.1,0-.15,.04-.15,.11-.01,1.05,.06,1.93,.21,2.62,.16,.69,.37,1.25,.63,1.69,.26,.43,.56,.75,.89,.96,.33,.21,.65,.35,.97,.43,.32,.08,.62,.12,.9,.12h.67c.5,0,.99-.05,1.46-.14,.48-.09,.91-.2,1.29-.32s.7-.24,.94-.34c.24-.11,.38-.17,.41-.18,.14-.06,.25-.06,.31,0s.1,.13,.11,.22c0,.09,0,.19-.02,.29-.02,.1-.04,.16-.05,.17-.16,.2-.36,.43-.61,.68s-.57,.49-.95,.72-.86,.41-1.43,.56c-.57,.15-1.25,.22-2.05,.22-1.35,0-2.51-.27-3.46-.8s-1.7-1.22-2.25-2.06-.9-1.78-1.05-2.81c-.15-1.03-.11-2.05,.13-3.06s.67-1.95,1.29-2.81c.63-.86,1.44-1.54,2.43-2.04,.16,.11,.31,.22,.47,.32,.13,.08,.25,.17,.36,.27,.11,.09,.2,.17,.26,.25Zm-.13-2.56c.08-.1,.2-.3,.35-.61,.15-.31,.31-.66,.49-1.05s.36-.8,.54-1.24,.36-.84,.51-1.22,.29-.7,.41-.96c.11-.26,.19-.42,.21-.46,.21-.3,.5-.45,.88-.45,.33,0,.62,.09,.87,.26,.24,.16,.38,.39,.41,.7,.01,.21-.07,.47-.27,.78-.19,.31-.44,.63-.74,.98-.3,.35-.64,.69-1.01,1.04s-.74,.67-1.09,.97c-.35,.31-.67,.57-.95,.79-.29,.22-.49,.37-.62,.46Z"/>
    <path d="M367.64,274.85c-.02,.21-.02,.43,0,.66,.01,.23,.03,.44,.05,.64s.04,.37,.06,.51c.02,.14,.05,.24,.08,.3,.14,.31,.35,.52,.63,.62,.28,.1,.52,.16,.72,.17,.16,.01,.26,.08,.3,.2,.04,.12,.06,.22,.06,.29,0,.04-.02,.12-.06,.23-.04,.11-.14,.18-.3,.19-.04,0-.19-.01-.44-.03-.25-.02-.53-.05-.84-.07s-.62-.05-.92-.07c-.3-.02-.52-.03-.66-.03-.17,0-.43,.01-.77,.03s-.7,.04-1.08,.06c-.38,.02-.73,.05-1.06,.07-.33,.03-.56,.04-.68,.04-.14,0-.23-.06-.27-.18s-.05-.2-.05-.25c-.01-.07,0-.17,.05-.29,.05-.12,.15-.19,.31-.2,.34-.01,.62-.05,.83-.11,.21-.06,.38-.12,.51-.19,.13-.07,.22-.14,.29-.21,.06-.07,.11-.14,.14-.19,.07-.13,.12-.28,.16-.46,.03-.18,.06-.36,.07-.56s.02-.38,.02-.56v-.46l.04-2.67c.41-.45,.87-.95,1.37-1.47,.5-.53,1.02-1.02,1.54-1.47l-.12,5.45Zm.02-8.05c.21-.26,.45-.51,.7-.77,.21-.21,.46-.44,.73-.67,.28-.23,.57-.43,.88-.59,.04-.01,.24-.08,.6-.2,.35-.12,.8-.2,1.33-.22s1.11,.04,1.75,.19c.63,.16,1.24,.51,1.82,1.05,.44,.41,.76,.96,.97,1.64,.21,.68,.31,1.5,.31,2.43,0,1.17,0,2.21,.02,3.14,0,.4,0,.79,.01,1.17s.01,.73,.01,1.05,0,.57,.01,.78c0,.21,.01,.33,.01,.37,.01,.3,.07,.55,.16,.75,.09,.2,.22,.36,.37,.48,.16,.12,.34,.21,.54,.26s.42,.08,.63,.1c.16,.01,.26,.08,.3,.2,.04,.12,.06,.22,.06,.29,0,.06-.03,.14-.08,.26-.05,.11-.15,.17-.29,.17-.07,0-.25-.01-.52-.04-.28-.03-.58-.05-.91-.07-.33-.02-.65-.04-.97-.06s-.55-.03-.69-.03c-.16,0-.4,.01-.72,.03s-.67,.05-1.02,.07c-.36,.03-.68,.05-.97,.07-.29,.02-.49,.03-.59,.03-.13-.01-.21-.08-.26-.19-.04-.11-.06-.19-.06-.23,0-.07,.02-.17,.06-.29,.04-.12,.14-.19,.3-.2,.11-.01,.27-.03,.46-.06,.19-.03,.38-.09,.57-.19,.19-.1,.35-.25,.48-.46,.14-.21,.21-.49,.22-.84v-2.33c0-.63,0-1.32,.02-2.09,0-.54-.03-1.09-.09-1.63s-.19-1.04-.39-1.48c-.21-.44-.5-.8-.89-1.09-.39-.29-.9-.43-1.54-.45-.47,0-.95,.08-1.43,.26-.48,.17-.96,.4-1.43,.69-.47,.29-.93,.63-1.37,1-.44,.38-.85,.76-1.24,1.16-.91,.93-1.79,1.99-2.65,3.18,0-.61,.08-1.18,.24-1.7,.16-.52,.33-.98,.53-1.39s.4-.75,.59-1.03c.19-.28,.34-.47,.44-.59-.03-.24-.06-.52-.08-.83-.03-.31-.06-.55-.09-.7-.06-.26-.15-.45-.29-.59-.13-.13-.29-.24-.45-.31-.16-.07-.33-.11-.5-.12-.17,0-.32-.01-.45-.01-.16,0-.26-.05-.32-.16-.06-.11-.08-.19-.08-.25s.02-.14,.07-.25c.05-.11,.16-.17,.33-.18,.2,0,.44-.01,.72-.03,.28-.02,.6-.07,.97-.14,.73-.13,1.47-.3,2.24-.51,.27-.08,.48-.03,.64,.17,.14,.19,.21,.4,.21,.64l.02,1.35Z"/>
    <path d="M385.32,265.93c-.41,.26-.74,.58-.98,.98-.24,.4-.42,.8-.54,1.2-.12,.4-.2,.74-.22,1.04-.03,.29-.04,.46-.04,.5,0,.14,.04,.21,.13,.21h5.42c.08,0,.13-.12,.14-.36s-.04-.55-.14-.92c-.1-.37-.27-.77-.51-1.21s-.58-.85-1-1.25c-.31-.28-.66-.54-1.05-.76-.38-.22-.75-.41-1.09-.57-.4-.17-.8-.33-1.22-.47,.4-.11,.78-.2,1.15-.25s.72-.06,1.05-.03c.7,.07,1.32,.21,1.86,.42,.54,.21,1.02,.46,1.43,.77,.41,.31,.77,.64,1.07,1.01,.3,.37,.55,.74,.75,1.11,.47,.88,.78,1.85,.92,2.9,0,.41-.15,.62-.45,.62h-8.37c-.1,0-.15,.04-.15,.11-.01,1.05,.06,1.93,.21,2.62,.16,.69,.37,1.25,.63,1.69s.56,.75,.89,.96c.33,.21,.65,.35,.97,.43,.32,.08,.62,.12,.9,.12h.67c.5,0,.99-.05,1.46-.14,.48-.09,.91-.2,1.29-.32,.38-.12,.7-.24,.94-.34,.24-.11,.38-.17,.41-.18,.14-.06,.25-.06,.31,0,.06,.06,.1,.13,.11,.22,0,.09,0,.19-.02,.29-.02,.1-.04,.16-.05,.17-.16,.2-.36,.43-.61,.68-.25,.26-.57,.49-.95,.72s-.86,.41-1.43,.56-1.25,.22-2.05,.22c-1.35,0-2.51-.27-3.46-.8s-1.7-1.22-2.25-2.06-.9-1.78-1.05-2.81-.11-2.05,.13-3.06c.23-1.01,.66-1.95,1.29-2.81,.63-.86,1.44-1.54,2.43-2.04,.16,.11,.31,.22,.47,.32,.13,.08,.25,.17,.36,.27,.11,.09,.2,.17,.26,.25Z"/>
    <path d="M397.1,269.26c.43-.2,.89-.41,1.4-.62,.5-.21,.99-.43,1.46-.64,0,1.47,0,2.78,.02,3.95,0,.5,0,.99,.01,1.47,0,.48,.01,.92,.01,1.31s0,.72,.01,.97c0,.26,.01,.41,.01,.45,.03,.4,.16,.7,.38,.91s.49,.36,.79,.46c.3,.1,.6,.16,.91,.19,.31,.03,.55,.05,.74,.06,.16,.03,.26,.1,.3,.21,.04,.11,.06,.21,.06,.28,0,.04-.04,.12-.13,.25-.09,.12-.16,.18-.24,.18-.21,0-.53-.01-.94-.03s-.83-.05-1.26-.07-.83-.05-1.21-.07-.64-.03-.78-.03c-.33,0-.65,0-.96,.02-.31,.01-.63,.04-.96,.09-.33,.03-.65,.05-.96,.05-.31,0-.63,.02-.96,.05-.14,0-.23-.06-.27-.18-.04-.12-.05-.2-.05-.25-.01-.09,0-.18,.06-.29,.06-.11,.16-.17,.3-.2,.14-.01,.34-.04,.58-.07,.24-.04,.49-.11,.74-.21,.25-.11,.46-.26,.64-.46s.27-.47,.29-.81c0-.16,0-.33,.02-.51,.01-.18,.02-.4,.02-.64-.01-.94-.02-1.81-.02-2.61v-1.01c0-.34,0-.65-.01-.94,0-.29-.01-.55-.01-.77v-.48Zm-1.56-.24c.16-.2,.38-.44,.68-.74,.3-.29,.6-.58,.9-.87-.03-.08-.05-.17-.07-.25-.02-.08-.05-.15-.07-.22-.04-.07-.1-.15-.16-.24s-.16-.17-.3-.25c-.14-.08-.32-.15-.54-.2-.23-.06-.52-.08-.88-.08-.11,0-.19-.06-.22-.17-.04-.11-.05-.19-.05-.24s.02-.12,.05-.24c.03-.11,.12-.18,.25-.19,.2,0,.43-.01,.68-.03,.26-.02,.55-.05,.87-.08,.33-.03,.66-.07,.99-.13,.33-.06,.67-.13,1.01-.24,.29-.07,.5-.08,.64-.02,.16,.06,.23,.21,.21,.47l.02,.34c.31-.19,.73-.39,1.24-.61,.51-.22,1.05-.39,1.62-.51,.57-.12,1.13-.16,1.69-.11,.56,.05,1.03,.26,1.43,.63,.21,.2,.37,.43,.46,.71,.09,.27,.14,.56,.14,.87,0,.36-.13,.67-.41,.94-.26,.28-.63,.43-1.11,.43-.44,0-.76-.11-.96-.34-.19-.23-.28-.47-.28-.73,0-.29-.05-.5-.15-.66-.13-.16-.37-.24-.73-.24-.1,0-.27,.04-.52,.13-.25,.08-.54,.2-.89,.33-.34,.14-.72,.29-1.12,.47s-.81,.36-1.23,.54c-.97,.44-2.04,.94-3.2,1.49Z"/>
    <path d="M413.93,278.67c-.36,0-.76-.03-1.21-.11-.45-.07-.91-.2-1.38-.4-.47-.19-.93-.46-1.38-.8-.45-.34-.85-.78-1.22-1.31-.36-.53-.66-1.18-.89-1.95-.23-.77-.35-1.67-.36-2.71-.01-.98,.1-1.84,.34-2.58,.24-.74,.56-1.37,.96-1.9,.4-.53,.85-.96,1.37-1.3,.51-.34,1.03-.61,1.54-.79,.63-.23,1.22-.37,1.78-.42,.56-.05,1.05-.06,1.46-.02,.41,.04,.73,.09,.96,.16,.23,.07,.32,.11,.28,.11-1.01,.16-1.88,.46-2.59,.92-.72,.46-1.3,1-1.75,1.63-.45,.63-.78,1.32-.99,2.07-.21,.75-.33,1.5-.35,2.26-.02,.76,.05,1.5,.22,2.21,.17,.71,.41,1.34,.7,1.89,.3,.55,.66,.99,1.09,1.32s.89,.5,1.39,.5c.11,0,.28-.02,.5-.06s.46-.13,.73-.28c.26-.14,.54-.35,.82-.63,.29-.28,.54-.65,.77-1.13,.23-.48,.42-1.06,.57-1.76,.15-.7,.22-1.54,.22-2.54,0-.5-.05-.95-.14-1.35-.09-.4-.21-.76-.35-1.08-.14-.32-.3-.6-.48-.84s-.36-.46-.54-.64c-.44-.41-.94-.73-1.49-.94,.91-.19,1.76-.19,2.54-.02,.33,.07,.66,.19,.99,.35,.33,.16,.65,.39,.95,.68,.3,.29,.56,.66,.79,1.1s.41,.98,.53,1.6c.01,.21,.04,.41,.06,.6,.03,.16,.05,.31,.06,.46,.01,.15,.02,.26,.02,.33-.01,1.05-.15,1.97-.4,2.74-.25,.78-.57,1.44-.96,1.99-.39,.55-.83,.99-1.32,1.33-.49,.34-.98,.61-1.46,.8-.48,.19-.94,.32-1.36,.4s-.77,.11-1.04,.11Z"/>
    <path d="M435.93,278.85c.04-.1,.11-.24,.21-.43,.1-.19,.2-.38,.29-.58,.09-.2,.18-.38,.26-.53,.08-.16,.12-.25,.12-.28,.2,.14,.4,.28,.59,.41,.19,.13,.4,.25,.63,.36-.06,.1-.18,.33-.36,.69s-.41,.79-.67,1.27c-.26,.48-.54,1-.83,1.55-.29,.55-.57,1.06-.82,1.53-.26,.47-.48,.88-.66,1.22-.19,.34-.3,.54-.34,.6-.53,.8-1.05,1.36-1.57,1.7s-.99,.53-1.42,.6-.79,.04-1.09-.06c-.3-.11-.49-.2-.58-.29-.3-.3-.49-.59-.57-.86-.08-.28-.08-.53-.01-.76,.07-.23,.19-.42,.36-.59,.17-.16,.36-.29,.56-.37,.36-.14,.64-.14,.85,0,.17,.11,.34,.23,.5,.34,.16,.11,.34,.16,.53,.15,.19-.01,.42-.12,.67-.32,.26-.2,.56-.56,.9-1.09,.04-.07,.13-.22,.27-.44s.29-.48,.46-.77c.17-.29,.35-.6,.54-.93,.19-.33,.37-.64,.53-.93,.16-.29,.31-.54,.43-.76,.12-.21,.2-.36,.22-.43Zm8.82-14.41c.1,0,.17,.04,.22,.13,.05,.08,.07,.18,.06,.28,0,.1-.04,.19-.1,.28s-.13,.13-.24,.13c-.38,.01-.67,.1-.84,.26-.18,.16-.3,.29-.37,.38-.07,.1-.32,.59-.75,1.48-.43,.89-1.08,2.29-1.94,4.2-.16,.34-.3,.66-.43,.95-.13,.29-.26,.58-.38,.85-.13,.28-.26,.56-.41,.85-.14,.29-.3,.62-.47,.99,.36,.41,.77,.86,1.25,1.36,.48,.49,1.03,1,1.65,1.53-1.25-.11-2.36-.42-3.31-.91-.95-.49-1.78-1.07-2.48-1.75-.7-.68-1.29-1.41-1.77-2.19-.48-.78-.89-1.54-1.21-2.26-.32-.73-.58-1.38-.77-1.95s-.35-1-.46-1.27c-.1-.24-.19-.46-.28-.64-.09-.19-.17-.36-.26-.51-.04-.07-.1-.17-.17-.31-.07-.14-.18-.27-.32-.42-.14-.14-.33-.27-.56-.39s-.51-.2-.85-.25c-.09-.01-.16-.06-.21-.15-.06-.08-.09-.18-.1-.28,0-.1,.01-.19,.06-.27,.05-.08,.14-.12,.27-.12,.16,0,.4,.01,.73,.03,.33,.02,.67,.04,1.04,.05s.71,.03,1.04,.04c.33,.01,.56,.02,.71,.02s.37,0,.69-.02,.65-.03,1-.04c.35-.01,.68-.03,1-.05,.32-.02,.55-.03,.69-.03,.11,0,.2,.04,.25,.12,.05,.08,.07,.17,.06,.27,0,.1-.04,.2-.09,.29-.05,.09-.12,.14-.22,.14-.41,.04-.74,.11-.97,.19-.24,.09-.41,.18-.52,.28-.11,.1-.18,.2-.2,.3-.02,.1-.03,.18-.03,.23,.04,.38,.15,.83,.31,1.32,.16,.5,.36,1.02,.59,1.57,.23,.55,.47,1.09,.73,1.62,.26,.53,.5,1.03,.75,1.49,.24,.46,.46,.86,.65,1.19s.34,.56,.44,.68l.44-.87c.16-.33,.33-.66,.49-.99,.16-.33,.32-.66,.47-.97,.15-.31,.27-.59,.37-.83,.24-.56,.46-1.1,.66-1.63,.2-.53,.39-1.06,.58-1.57,.13-.37,.19-.67,.18-.91,0-.23-.07-.43-.2-.58-.13-.15-.31-.26-.54-.33-.24-.07-.52-.13-.84-.19-.11-.01-.2-.06-.25-.15-.05-.08-.07-.18-.07-.28s.02-.19,.07-.27c.05-.08,.13-.12,.25-.12,.1,0,.26,0,.48,.02,.22,.01,.45,.03,.69,.05s.47,.04,.69,.05,.38,.02,.48,.02c.11,0,.3,0,.56-.02s.52-.03,.79-.05,.52-.04,.76-.05c.24-.01,.39-.02,.46-.02Z"/>
    <path d="M468.17,267.92c.44,.73,.77,1.59,.98,2.57-1.58-1.47-2.98-2.55-4.19-3.25-1.21-.7-2.26-1.11-3.15-1.25-.89-.13-1.63-.04-2.23,.28-.6,.32-1.08,.77-1.44,1.33-.36,.57-.62,1.2-.78,1.9-.16,.7-.24,1.36-.24,1.99,0,1.22,.14,2.19,.42,2.9,.28,.71,.6,1.26,.97,1.63,.37,.38,.73,.62,1.08,.73,.35,.11,.59,.16,.72,.16,.44,.01,.85-.03,1.24-.15,.38-.11,.73-.26,1.03-.43,.3-.17,.55-.35,.76-.53s.36-.33,.46-.45l.04-7.67c.45,.2,.89,.43,1.3,.69s.9,.61,1.45,1.04v.67c0,.31,0,.66,.01,1.05s.01,.8,.02,1.23,.01,.83,.02,1.21,.01,.7,.01,.98v.54c.01,.53,.11,.93,.29,1.19,.18,.27,.39,.46,.63,.58,.24,.11,.48,.17,.73,.18s.43,.01,.58,.01c.03,0,.08,.03,.15,.1,.07,.06,.11,.18,.11,.35,.01,.19-.01,.31-.07,.36-.06,.06-.12,.09-.18,.09-.04,0-.12,0-.22,.02-.11,.01-.22,.02-.34,.03-.12,0-.24,.02-.34,.03-.11,.01-.17,.02-.2,.02s-.22,.03-.57,.1c-.35,.06-.73,.13-1.13,.19-.41,.06-.78,.12-1.13,.18-.35,.06-.53,.09-.54,.09-.16,0-.29-.14-.38-.41-.1-.26-.15-.65-.15-1.17,0-.1-.03-.14-.09-.13-.03,.01-.05,.03-.06,.04s-.03,.03-.06,.04c-.16,.14-.35,.31-.58,.49-.23,.19-.5,.36-.81,.53-.31,.17-.68,.31-1.1,.43-.42,.11-.9,.17-1.44,.17-.14,0-.38-.01-.72-.04-.34-.03-.71-.11-1.13-.24-.42-.13-.86-.33-1.31-.61-.46-.28-.87-.66-1.25-1.15-.38-.49-.69-1.11-.94-1.85-.25-.74-.38-1.65-.39-2.73,0-.23,.03-.62,.1-1.16,.06-.55,.21-1.16,.43-1.83,.22-.67,.54-1.35,.97-2.03,.43-.68,1-1.27,1.73-1.75,.73-.48,1.63-.82,2.7-1,1.08-.18,2.37-.11,3.88,.21,0-.94,0-1.69-.02-2.24s-.02-.96-.02-1.22c0-.67-.2-1.17-.6-1.5-.4-.33-1.04-.48-1.92-.45-.11,0-.19-.07-.22-.2-.04-.13-.05-.23-.05-.29,.01-.06,.04-.15,.06-.27,.03-.12,.1-.18,.21-.18,.17-.01,.35-.03,.53-.04s.38-.03,.58-.04c.88-.06,1.66-.15,2.33-.28,.67-.13,1.1-.22,1.28-.28,.24-.09,.42-.07,.53,.04,.07,.08,.12,.2,.15,.34v8.18c.6,.53,1.12,1.16,1.56,1.89Z"/>
    <path d="M476.41,265.93c-.41,.26-.74,.58-.98,.98-.24,.4-.42,.8-.54,1.2-.12,.4-.2,.74-.22,1.04-.03,.29-.04,.46-.04,.5,0,.14,.04,.21,.13,.21h5.42c.08,0,.13-.12,.14-.36s-.04-.55-.14-.92c-.1-.37-.27-.77-.51-1.21s-.58-.85-1-1.25c-.31-.28-.66-.54-1.05-.76-.38-.22-.75-.41-1.09-.57-.4-.17-.8-.33-1.22-.47,.4-.11,.78-.2,1.15-.25s.72-.06,1.05-.03c.7,.07,1.32,.21,1.86,.42,.54,.21,1.02,.46,1.43,.77,.41,.31,.77,.64,1.07,1.01,.3,.37,.55,.74,.75,1.11,.47,.88,.78,1.85,.92,2.9,0,.41-.15,.62-.45,.62h-8.37c-.1,0-.15,.04-.15,.11-.01,1.05,.06,1.93,.21,2.62,.16,.69,.37,1.25,.63,1.69s.56,.75,.89,.96c.33,.21,.65,.35,.97,.43,.32,.08,.62,.12,.9,.12h.67c.5,0,.99-.05,1.46-.14,.48-.09,.91-.2,1.29-.32,.38-.12,.7-.24,.94-.34,.24-.11,.38-.17,.41-.18,.14-.06,.25-.06,.31,0,.06,.06,.1,.13,.11,.22,0,.09,0,.19-.02,.29-.02,.1-.04,.16-.05,.17-.16,.2-.36,.43-.61,.68-.25,.26-.57,.49-.95,.72s-.86,.41-1.43,.56-1.25,.22-2.05,.22c-1.35,0-2.51-.27-3.46-.8s-1.7-1.22-2.25-2.06-.9-1.78-1.05-2.81-.11-2.05,.13-3.06c.23-1.01,.66-1.95,1.29-2.81,.63-.86,1.44-1.54,2.43-2.04,.16,.11,.31,.22,.47,.32,.13,.08,.25,.17,.36,.27,.11,.09,.2,.17,.26,.25Z"/>
    <path d="M488.2,269.26c.43-.2,.89-.41,1.4-.62,.5-.21,.99-.43,1.46-.64,0,1.47,0,2.78,.02,3.95,0,.5,0,.99,.01,1.47,0,.48,.01,.92,.01,1.31s0,.72,.01,.97c0,.26,.01,.41,.01,.45,.03,.4,.16,.7,.38,.91s.49,.36,.79,.46c.3,.1,.6,.16,.91,.19,.31,.03,.55,.05,.74,.06,.16,.03,.26,.1,.3,.21,.04,.11,.06,.21,.06,.28,0,.04-.04,.12-.13,.25-.09,.12-.16,.18-.24,.18-.21,0-.53-.01-.94-.03s-.83-.05-1.26-.07-.83-.05-1.21-.07-.64-.03-.78-.03c-.33,0-.65,0-.96,.02-.31,.01-.63,.04-.96,.09-.33,.03-.65,.05-.96,.05-.31,0-.63,.02-.96,.05-.14,0-.23-.06-.27-.18-.04-.12-.05-.2-.05-.25-.01-.09,0-.18,.06-.29,.06-.11,.16-.17,.3-.2,.14-.01,.34-.04,.58-.07,.24-.04,.49-.11,.74-.21,.25-.11,.46-.26,.64-.46s.27-.47,.29-.81c0-.16,0-.33,.02-.51,.01-.18,.02-.4,.02-.64-.01-.94-.02-1.81-.02-2.61v-1.01c0-.34,0-.65-.01-.94,0-.29-.01-.55-.01-.77v-.48Zm-1.56-.24c.16-.2,.38-.44,.68-.74,.3-.29,.6-.58,.9-.87-.03-.08-.05-.17-.07-.25-.02-.08-.05-.15-.07-.22-.04-.07-.1-.15-.16-.24s-.16-.17-.3-.25c-.14-.08-.32-.15-.54-.2-.23-.06-.52-.08-.88-.08-.11,0-.19-.06-.22-.17-.04-.11-.05-.19-.05-.24s.02-.12,.05-.24c.03-.11,.12-.18,.25-.19,.2,0,.43-.01,.68-.03,.26-.02,.55-.05,.87-.08,.33-.03,.66-.07,.99-.13,.33-.06,.67-.13,1.01-.24,.29-.07,.5-.08,.64-.02,.16,.06,.23,.21,.21,.47l.02,.34c.31-.19,.73-.39,1.24-.61,.51-.22,1.05-.39,1.62-.51,.57-.12,1.13-.16,1.69-.11,.56,.05,1.03,.26,1.43,.63,.21,.2,.37,.43,.46,.71,.09,.27,.14,.56,.14,.87,0,.36-.13,.67-.41,.94-.26,.28-.63,.43-1.11,.43-.44,0-.76-.11-.96-.34-.19-.23-.28-.47-.28-.73,0-.29-.05-.5-.15-.66-.13-.16-.37-.24-.73-.24-.1,0-.27,.04-.52,.13-.25,.08-.54,.2-.89,.33-.34,.14-.72,.29-1.12,.47s-.81,.36-1.23,.54c-.97,.44-2.04,.94-3.2,1.49Z"/>
    <path d="M503.7,265.93c-.41,.26-.74,.58-.98,.98-.24,.4-.42,.8-.54,1.2-.12,.4-.2,.74-.22,1.04-.03,.29-.04,.46-.04,.5,0,.14,.04,.21,.13,.21h5.42c.08,0,.13-.12,.14-.36s-.04-.55-.14-.92c-.1-.37-.27-.77-.51-1.21s-.58-.85-1-1.25c-.31-.28-.66-.54-1.05-.76-.38-.22-.75-.41-1.09-.57-.4-.17-.8-.33-1.22-.47,.4-.11,.78-.2,1.15-.25s.72-.06,1.05-.03c.7,.07,1.32,.21,1.86,.42,.54,.21,1.02,.46,1.43,.77,.41,.31,.77,.64,1.07,1.01,.3,.37,.55,.74,.75,1.11,.47,.88,.78,1.85,.92,2.9,0,.41-.15,.62-.45,.62h-8.37c-.1,0-.15,.04-.15,.11-.01,1.05,.06,1.93,.21,2.62,.16,.69,.37,1.25,.63,1.69s.56,.75,.89,.96c.33,.21,.65,.35,.97,.43,.32,.08,.62,.12,.9,.12h.67c.5,0,.99-.05,1.46-.14,.48-.09,.91-.2,1.29-.32,.38-.12,.7-.24,.94-.34,.24-.11,.38-.17,.41-.18,.14-.06,.25-.06,.31,0,.06,.06,.1,.13,.11,.22,0,.09,0,.19-.02,.29-.02,.1-.04,.16-.05,.17-.16,.2-.36,.43-.61,.68-.25,.26-.57,.49-.95,.72s-.86,.41-1.43,.56-1.25,.22-2.05,.22c-1.35,0-2.51-.27-3.46-.8s-1.7-1.22-2.25-2.06-.9-1.78-1.05-2.81-.11-2.05,.13-3.06c.23-1.01,.66-1.95,1.29-2.81,.63-.86,1.44-1.54,2.43-2.04,.16,.11,.31,.22,.47,.32,.13,.08,.25,.17,.36,.27,.11,.09,.2,.17,.26,.25Z"/>
    <path d="M522.5,278.06s-.14,.05-.32,.12c-.19,.06-.43,.14-.73,.21-.3,.08-.65,.15-1.06,.2-.41,.06-.84,.08-1.31,.08h-.75c-.37,0-.79-.05-1.27-.16-.48-.11-.98-.29-1.51-.56-.53-.26-1.01-.66-1.45-1.19-.44-.53-.81-1.21-1.11-2.04-.3-.83-.46-1.88-.49-3.13,0-.26,.02-.61,.07-1.05,.05-.44,.16-.92,.32-1.44,.16-.52,.4-1.05,.72-1.58,.31-.53,.73-1.02,1.26-1.45s1.18-.79,1.95-1.07,1.7-.42,2.79-.42,1.93,.15,2.54,.44c.61,.29,1.07,.62,1.38,.99,.31,.37,.49,.73,.57,1.08,.07,.35,.11,.59,.11,.72,0,.34-.12,.67-.36,.98-.06,.09-.19,.15-.38,.19-.2,.04-.42,.07-.65,.09-.24,.01-.46,.01-.66-.01-.21-.02-.35-.06-.42-.12-.07-.06-.14-.14-.19-.24-.06-.1-.1-.22-.13-.35-.03-.13-.04-.29-.02-.46s.07-.36,.17-.56c.17-.33,.13-.63-.12-.92-.25-.28-.61-.48-1.07-.6-.46-.11-.98-.11-1.56,0-.58,.11-1.11,.41-1.61,.89-.5,.48-.91,1.17-1.23,2.07-.32,.9-.45,2.08-.39,3.53,.01,.57,.12,1.11,.31,1.61s.45,.95,.78,1.33,.72,.69,1.17,.92,.97,.35,1.54,.36c.4,.01,.81,.02,1.24,.01s.87-.06,1.33-.16c.46-.1,.94-.26,1.42-.47,.48-.21,.98-.53,1.47-.94,.04,.38,0,.76-.15,1.13-.13,.33-.36,.66-.68,1-.33,.34-.83,.65-1.52,.92Z"/>
    <path d="M532.92,265.05c.68-.33,1.38-.58,2.11-.76,.72-.18,1.43-.26,2.12-.26,.69,0,1.34,.11,1.95,.32,.61,.21,1.14,.52,1.6,.95s.82,.98,1.09,1.65c.27,.68,.41,1.48,.43,2.42,0,1.22,0,2.34,.02,3.33,0,.43,0,.84,.01,1.25s.01,.78,.02,1.11c0,.34,.01,.61,.01,.82v.38c0,.33,.07,.59,.22,.78s.32,.34,.52,.44c.2,.1,.39,.16,.59,.19,.19,.03,.32,.04,.4,.04,.2,.01,.31,.09,.34,.21s.04,.22,.04,.28c0,.07-.03,.16-.07,.27-.05,.11-.14,.16-.27,.16-.07,0-.24-.01-.51-.03-.27-.02-.57-.05-.9-.07s-.65-.05-.96-.07-.54-.03-.7-.03-.41,.01-.75,.03-.7,.05-1.07,.07-.71,.05-1.03,.07c-.32,.02-.54,.03-.65,.03-.07,0-.15-.03-.24-.1-.08-.06-.13-.17-.13-.33,0-.06,.02-.15,.07-.27,.05-.12,.15-.2,.31-.22,.11,0,.27-.01,.48-.03s.41-.08,.61-.18c.2-.1,.37-.25,.52-.44s.23-.47,.25-.82v-.84c0-.22,0-.47,.01-.74,0-.27,.01-.54,.01-.81,0-.64,0-1.35,.02-2.14-.04-1.62-.29-2.83-.75-3.63s-1.05-1.28-1.77-1.44-1.54-.06-2.46,.31c-.91,.37-1.84,.9-2.8,1.6-.53,.4-1.01,.82-1.44,1.28s-.81,.88-1.14,1.28c-.37,.47-.71,.94-1.03,1.41-.16-1.05-.04-2.04,.35-2.97,.39-.93,.95-1.76,1.68-2.5v-3.94c0-.36,0-.69-.01-.99,0-.3-.01-.55-.01-.76v-.42c-.01-.34-.06-.62-.14-.84-.08-.22-.17-.4-.28-.52-.11-.13-.21-.22-.32-.28-.11-.06-.2-.1-.29-.13-.34-.11-.79-.19-1.35-.24-.11-.01-.19-.08-.24-.2s-.07-.21-.09-.27c0-.04,.01-.12,.04-.25,.03-.12,.12-.19,.28-.2,.3-.03,.63-.06,.98-.09,.36-.03,.75-.06,1.17-.11,.43-.03,.84-.08,1.25-.16,.41-.08,.79-.17,1.16-.29,.28-.09,.47-.07,.56,.04,.1,.11,.16,.24,.17,.36l-.02,7.24Zm-.26,3.99c.01,1.28,.03,2.43,.04,3.44,0,.43,0,.85,.01,1.28s.01,.81,.02,1.15c0,.34,.01,.63,.02,.85,0,.23,.01,.36,.01,.41,0,.36,.06,.64,.19,.84,.13,.21,.27,.36,.44,.47,.16,.11,.33,.17,.5,.2,.17,.03,.31,.04,.41,.04,.16,.01,.26,.08,.32,.19,.06,.11,.09,.21,.09,.3,0,.06-.03,.14-.07,.26-.05,.11-.15,.17-.29,.17-.07,0-.24-.01-.5-.03-.26-.02-.55-.05-.86-.07-.31-.03-.62-.05-.93-.07-.31-.02-.54-.03-.69-.03s-.4,.01-.74,.03-.68,.05-1.05,.07c-.36,.03-.7,.05-1.01,.07-.31,.02-.53,.03-.64,.03-.16,.01-.26-.04-.3-.15-.04-.11-.06-.21-.06-.28,.01-.06,.04-.15,.09-.28,.04-.13,.15-.2,.32-.21,.11,0,.27-.01,.48-.04,.21-.03,.41-.09,.62-.19,.21-.1,.38-.25,.53-.44,.15-.19,.22-.46,.22-.8v-.29c0-.15,0-.34-.01-.57s-.01-.47-.02-.74c0-.26-.01-.54-.01-.82-.01-.64-.04-1.36-.06-2.16,.27-.29,.56-.58,.86-.89s.62-.6,.95-.89c.13-.1,.23-.19,.31-.26,.08-.07,.16-.14,.24-.2,.08-.06,.16-.13,.26-.19,.09-.06,.2-.14,.33-.22Z"/>
    <path d="M552.58,278.67c-.36,0-.76-.03-1.21-.11-.45-.07-.91-.2-1.38-.4-.47-.19-.93-.46-1.38-.8-.45-.34-.85-.78-1.22-1.31-.36-.53-.66-1.18-.89-1.95-.23-.77-.35-1.67-.36-2.71-.01-.98,.1-1.84,.34-2.58,.24-.74,.56-1.37,.96-1.9,.4-.53,.85-.96,1.37-1.3,.51-.34,1.03-.61,1.54-.79,.63-.23,1.22-.37,1.78-.42,.56-.05,1.05-.06,1.46-.02,.41,.04,.73,.09,.96,.16,.23,.07,.32,.11,.28,.11-1.01,.16-1.88,.46-2.59,.92-.72,.46-1.3,1-1.75,1.63-.45,.63-.78,1.32-.99,2.07-.21,.75-.33,1.5-.35,2.26-.02,.76,.05,1.5,.22,2.21,.17,.71,.41,1.34,.7,1.89,.3,.55,.66,.99,1.09,1.32s.89,.5,1.39,.5c.11,0,.28-.02,.5-.06s.46-.13,.73-.28c.26-.14,.54-.35,.82-.63,.29-.28,.54-.65,.77-1.13,.23-.48,.42-1.06,.57-1.76,.15-.7,.22-1.54,.22-2.54,0-.5-.05-.95-.14-1.35-.09-.4-.21-.76-.35-1.08-.14-.32-.3-.6-.48-.84s-.36-.46-.54-.64c-.44-.41-.94-.73-1.49-.94,.91-.19,1.76-.19,2.54-.02,.33,.07,.66,.19,.99,.35,.33,.16,.65,.39,.95,.68,.3,.29,.56,.66,.79,1.1s.41,.98,.53,1.6c.01,.21,.04,.41,.06,.6,.03,.16,.05,.31,.06,.46,.01,.15,.02,.26,.02,.33-.01,1.05-.15,1.97-.4,2.74-.25,.78-.57,1.44-.96,1.99-.39,.55-.83,.99-1.32,1.33-.49,.34-.98,.61-1.46,.8-.48,.19-.94,.32-1.36,.4s-.77,.11-1.04,.11Z"/>
    <path d="M565.55,278.45c-.61-.16-1.13-.38-1.55-.65-.42-.27-.75-.58-.99-.92-.24-.34-.42-.7-.53-1.07-.29-.85-.31-1.82-.09-2.9,.23,.8,.56,1.52,.98,2.16,.19,.27,.4,.54,.64,.8,.24,.26,.52,.49,.83,.69,.31,.2,.67,.36,1.06,.49,.39,.13,.82,.19,1.29,.19,.5-.01,.93-.09,1.3-.24,.31-.11,.61-.3,.88-.54,.27-.25,.4-.6,.38-1.06-.01-.53-.18-.97-.49-1.32-.31-.36-.7-.67-1.17-.93-.47-.26-.99-.5-1.57-.72s-1.13-.44-1.65-.67c-.53-.24-1-.5-1.43-.79-.43-.29-.73-.66-.92-1.1-.09-.21-.16-.45-.21-.7-.06-.26-.09-.54-.09-.85,0-.61,.11-1.14,.34-1.59,.23-.45,.52-.83,.88-1.14,.36-.31,.76-.56,1.22-.75,.45-.18,.93-.31,1.41-.38,.48-.07,.96-.09,1.43-.06,.47,.03,.9,.09,1.28,.19,.21,.07,.44,.17,.67,.29s.49,.26,.76,.42c.07,.04,.17,.04,.3,0,.13-.07,.24-.24,.32-.49,.01-.04,.05-.09,.1-.15,.05-.06,.18-.07,.39-.04,.19,.01,.3,.05,.33,.11,.03,.06,.04,.1,.01,.13-.04,.11-.08,.3-.13,.56-.04,.26-.07,.56-.1,.92s-.03,.75-.02,1.19,.03,.87,.07,1.31c0,.06-.05,.1-.16,.14-.11,.04-.18,.05-.22,.05-.08,.01-.17,0-.27-.03-.09-.04-.15-.07-.16-.1-.21-1.05-.57-1.87-1.07-2.46-.51-.57-1.32-.85-2.41-.85-.19,0-.42,.02-.71,.05-.28,.04-.56,.12-.82,.27-.26,.14-.49,.35-.69,.62-.2,.27-.31,.64-.32,1.11-.01,.26,.03,.48,.14,.67,.11,.19,.26,.37,.46,.52,.13,.1,.37,.23,.74,.4,.36,.16,.74,.32,1.14,.48s.76,.3,1.08,.43c.32,.13,.52,.2,.59,.21,.9,.33,1.59,.72,2.08,1.16,.49,.45,.85,.89,1.09,1.31s.38,.82,.43,1.17c.05,.36,.07,.6,.07,.73,0,.73-.16,1.34-.48,1.85-.32,.5-.72,.91-1.18,1.23-.47,.31-.98,.54-1.53,.68-.55,.14-1.04,.22-1.48,.23h-.02c-.87,0-1.61-.08-2.22-.25Z"/>
    <path d="M587.26,265.05c.68-.33,1.38-.58,2.11-.76,.72-.18,1.43-.26,2.12-.26,.69,0,1.34,.11,1.95,.32,.61,.21,1.14,.52,1.6,.95s.82,.98,1.09,1.65c.27,.68,.41,1.48,.43,2.42,0,1.22,0,2.34,.02,3.33,0,.43,0,.84,.01,1.25s.01,.78,.02,1.11c0,.34,.01,.61,.01,.82v.38c0,.33,.07,.59,.22,.78s.32,.34,.52,.44c.2,.1,.39,.16,.59,.19,.19,.03,.32,.04,.4,.04,.2,.01,.31,.09,.34,.21s.04,.22,.04,.28c0,.07-.03,.16-.07,.27-.05,.11-.14,.16-.27,.16-.07,0-.24-.01-.51-.03-.27-.02-.57-.05-.9-.07s-.65-.05-.96-.07-.54-.03-.7-.03-.41,.01-.75,.03-.7,.05-1.07,.07-.71,.05-1.03,.07c-.32,.02-.54,.03-.65,.03-.07,0-.15-.03-.24-.1-.08-.06-.13-.17-.13-.33,0-.06,.02-.15,.07-.27,.05-.12,.15-.2,.31-.22,.11,0,.27-.01,.48-.03s.41-.08,.61-.18c.2-.1,.37-.25,.52-.44s.23-.47,.25-.82v-.84c0-.22,0-.47,.01-.74,0-.27,.01-.54,.01-.81,0-.64,0-1.35,.02-2.14-.04-1.62-.29-2.83-.75-3.63s-1.05-1.28-1.77-1.44-1.54-.06-2.46,.31c-.91,.37-1.84,.9-2.8,1.6-.53,.4-1.01,.82-1.44,1.28s-.81,.88-1.14,1.28c-.37,.47-.71,.94-1.03,1.41-.16-1.05-.04-2.04,.35-2.97,.39-.93,.95-1.76,1.68-2.5v-3.94c0-.36,0-.69-.01-.99,0-.3-.01-.55-.01-.76v-.42c-.01-.34-.06-.62-.14-.84-.08-.22-.17-.4-.28-.52-.11-.13-.21-.22-.32-.28-.11-.06-.2-.1-.29-.13-.34-.11-.79-.19-1.35-.24-.11-.01-.19-.08-.24-.2s-.07-.21-.09-.27c0-.04,.01-.12,.04-.25,.03-.12,.12-.19,.28-.2,.3-.03,.63-.06,.98-.09,.36-.03,.75-.06,1.17-.11,.43-.03,.84-.08,1.25-.16,.41-.08,.79-.17,1.16-.29,.28-.09,.47-.07,.56,.04,.1,.11,.16,.24,.17,.36l-.02,7.24Zm-.26,3.99c.01,1.28,.03,2.43,.04,3.44,0,.43,0,.85,.01,1.28s.01,.81,.02,1.15c0,.34,.01,.63,.02,.85,0,.23,.01,.36,.01,.41,0,.36,.06,.64,.19,.84,.13,.21,.27,.36,.44,.47,.16,.11,.33,.17,.5,.2,.17,.03,.31,.04,.41,.04,.16,.01,.26,.08,.32,.19,.06,.11,.09,.21,.09,.3,0,.06-.03,.14-.07,.26-.05,.11-.15,.17-.29,.17-.07,0-.24-.01-.5-.03-.26-.02-.55-.05-.86-.07-.31-.03-.62-.05-.93-.07-.31-.02-.54-.03-.69-.03s-.4,.01-.74,.03-.68,.05-1.05,.07c-.36,.03-.7,.05-1.01,.07-.31,.02-.53,.03-.64,.03-.16,.01-.26-.04-.3-.15-.04-.11-.06-.21-.06-.28,.01-.06,.04-.15,.09-.28,.04-.13,.15-.2,.32-.21,.11,0,.27-.01,.48-.04,.21-.03,.41-.09,.62-.19,.21-.1,.38-.25,.53-.44,.15-.19,.22-.46,.22-.8v-.29c0-.15,0-.34-.01-.57s-.01-.47-.02-.74c0-.26-.01-.54-.01-.82-.01-.64-.04-1.36-.06-2.16,.27-.29,.56-.58,.86-.89s.62-.6,.95-.89c.13-.1,.23-.19,.31-.26,.08-.07,.16-.14,.24-.2,.08-.06,.16-.13,.26-.19,.09-.06,.2-.14,.33-.22Z"/>
    <path d="M616.24,271.46c-.06,.44-.16,.89-.3,1.35-.13,.38-.31,.8-.53,1.25-.23,.45-.53,.88-.92,1.29,.03,.21,.08,.4,.14,.56,.06,.16,.13,.3,.2,.43,.04,.07,.1,.15,.17,.25,.07,.09,.18,.18,.33,.27,.15,.08,.34,.15,.57,.2,.23,.05,.52,.07,.88,.05,.11,0,.19,.06,.22,.18,.04,.12,.05,.22,.05,.29,0,.04-.01,.13-.04,.26-.03,.13-.11,.19-.24,.19-.33,0-.73,.04-1.22,.11-.48,.07-.96,.15-1.42,.24-.46,.09-.88,.16-1.24,.22-.36,.06-.59,.1-.67,.1-.37,.03-.56-.54-.56-1.71,0-.04-.02-.06-.06-.06-.03-.01-.06,0-.11,.04-.19,.16-.42,.34-.72,.54-.29,.21-.63,.4-1,.58s-.8,.32-1.26,.44c-.46,.11-.96,.17-1.48,.17-.97,0-1.74-.13-2.31-.38-.57-.26-1.01-.55-1.31-.89-.31-.33-.51-.67-.62-1-.11-.33-.18-.58-.22-.74s-.08-.44-.11-.85-.05-.89-.07-1.44-.04-1.12-.04-1.72-.01-1.16-.02-1.68c0-.52-.01-.96-.02-1.33,0-.37-.01-.6-.01-.68-.01-.4-.08-.72-.2-.96-.12-.24-.28-.42-.47-.54s-.41-.2-.64-.24-.47-.05-.69-.05c-.08,0-.17-.04-.26-.11-.09-.07-.13-.19-.13-.34,0-.06,.02-.15,.05-.28,.04-.13,.12-.19,.27-.19,.06,0,.17-.01,.33-.03s.35-.05,.54-.07,.39-.06,.58-.09c.19-.03,.33-.05,.43-.06s.26-.05,.48-.11c.22-.06,.46-.11,.71-.17,.25-.06,.49-.11,.72-.16,.23-.05,.38-.09,.47-.12,.27-.09,.46-.04,.58,.13,.1,.16,.15,.31,.15,.45v7.24c0,.41,.01,.79,.03,1.12s.05,.64,.07,.93c.04,.64,.19,1.14,.43,1.49,.24,.36,.54,.61,.9,.77,.36,.16,.74,.23,1.15,.22s.82-.05,1.21-.14c.39-.09,.75-.2,1.07-.33,.32-.13,.57-.26,.74-.37,.77-.5,1.48-1.01,2.14-1.53,.66-.52,1.23-1,1.73-1.44,.57-.51,1.1-1.02,1.58-1.52Zm-1.75,.64c-.26,.27-.55,.5-.87,.7-.33,.2-.63,.36-.92,.49-.34,.16-.69,.29-1.05,.41-.01-1-.02-1.89-.02-2.69v-1.01c0-.33,0-.64-.01-.93,0-.28-.01-.52-.01-.72v-.39c-.03-.5-.1-.86-.21-1.09-.03-.06-.07-.12-.13-.2-.06-.08-.15-.15-.27-.22-.12-.07-.29-.13-.49-.18s-.47-.08-.78-.1c-.11,0-.19-.06-.24-.19-.04-.13-.07-.22-.09-.28,0-.06,.01-.14,.04-.26,.03-.11,.12-.18,.28-.19,.37-.01,.72-.04,1.06-.08,.33-.04,.65-.1,.95-.17,.31-.07,.64-.15,.97-.25,.33-.09,.69-.2,1.06-.31,.3-.09,.49-.04,.58,.13,.11,.19,.17,.33,.17,.45l-.02,7.09Z"/>
    <path d="M643.85,277.76c.16,.03,.26,.1,.3,.21,.04,.11,.06,.21,.06,.28-.01,.04-.04,.12-.07,.25s-.13,.18-.29,.18c-.07,0-.31-.02-.72-.07-.41-.05-.91-.09-1.52-.12-.61-.03-1.27-.03-2.01-.02-.73,.01-1.46,.08-2.17,.21-.08,.01-.16-.02-.22-.1-.06-.08-.1-.17-.12-.28-.01-.11,0-.21,.05-.32,.05-.11,.15-.18,.31-.22,.13-.01,.3-.03,.5-.06,.21-.03,.41-.1,.61-.2,.2-.11,.37-.26,.52-.46,.15-.2,.22-.47,.22-.81v-.31c0-.16,0-.37,.01-.61s.01-.52,.01-.82v-.91c0-.71,0-1.51,.02-2.39,0-.14,0-.37-.02-.69-.01-.32-.04-.65-.06-1-.03-.35-.07-.67-.12-.97-.05-.3-.11-.5-.18-.62-.26-.4-.54-.68-.87-.85-.32-.17-.65-.26-1-.28-.35-.01-.71,.04-1.08,.16-.37,.12-.73,.27-1.07,.46-.81,.44-1.66,1.07-2.54,1.9-.63,.54-1.21,1.15-1.76,1.83-.55,.68-1.04,1.31-1.46,1.91-.5,.7-.96,1.41-1.39,2.14-.06-.61-.04-1.2,.06-1.75,.1-.56,.25-1.08,.44-1.57,.19-.49,.41-.94,.66-1.33,.25-.4,.49-.74,.74-1.03-.01-.07-.03-.21-.04-.41-.01-.2-.05-.43-.1-.69-.05-.26-.12-.53-.22-.8-.1-.27-.24-.52-.43-.74s-.42-.4-.7-.52c-.29-.13-.63-.17-1.05-.13-.97,.1-1.72,.35-2.24,.76-.53,.41-.91,.84-1.15,1.31-.24,.47-.38,.91-.43,1.32-.04,.41-.06,.68-.06,.81,.01,1.03,.02,1.94,.02,2.75v1.95c0,.28,0,.51,.01,.69s.01,.3,.01,.34c.01,.38,.1,.68,.26,.9,.16,.21,.34,.37,.54,.48,.21,.11,.41,.17,.62,.19s.37,.04,.5,.05c.14,.03,.24,.1,.3,.2,.06,.11,.08,.21,.06,.32-.01,.11-.05,.2-.12,.28-.06,.08-.15,.12-.25,.12-.06,0-.32-.02-.79-.07-.47-.05-1.04-.09-1.71-.12-.67-.03-1.39-.03-2.17-.02s-1.49,.08-2.15,.19c-.08,.01-.16-.02-.22-.1-.06-.08-.1-.17-.12-.29-.01-.11,0-.22,.06-.33,.06-.11,.16-.17,.32-.2,.24-.03,.46-.06,.65-.11,.19-.04,.36-.09,.5-.13,.26-.08,.45-.24,.57-.47s.2-.47,.24-.73c.03-.26,.05-.5,.04-.74,0-.24-.01-.41-.01-.52,.03-1.32,.04-2.53,.02-3.63,0-.47,0-.94-.02-1.41-.01-.47-.03-.9-.05-1.29-.02-.39-.05-.73-.09-1.02-.03-.29-.07-.5-.12-.63-.03-.07-.08-.16-.14-.26-.06-.1-.16-.19-.29-.28-.13-.09-.29-.16-.49-.21-.2-.06-.44-.08-.73-.06-.07,.01-.14-.02-.21-.1-.07-.08-.12-.16-.15-.26-.03-.09-.03-.19,.01-.29,.04-.1,.13-.16,.29-.19,.06,0,.2-.02,.42-.06,.22-.04,.48-.09,.78-.15,.3-.06,.62-.12,.95-.18,.33-.06,.64-.12,.92-.18,.28-.06,.51-.1,.69-.14s.29-.05,.3-.05c.13,0,.24,.03,.33,.09,.09,.06,.17,.13,.24,.22,.06,.09,.11,.19,.15,.29,.03,.1,.05,.19,.03,.28l-.09,1.41c0,.1,.04,.11,.13,.02,.43-.64,.92-1.15,1.47-1.54,.56-.39,1.13-.66,1.73-.82s1.2-.23,1.82-.19c.61,.04,1.19,.15,1.73,.34,.54,.19,1.03,.45,1.46,.78,.43,.33,.78,.7,1.04,1.13,.81-.71,1.61-1.24,2.39-1.59s1.53-.56,2.24-.62c.71-.06,1.37,0,1.98,.17s1.13,.45,1.57,.81c.44,.36,.79,.79,1.04,1.29,.25,.5,.37,1.03,.37,1.6v.8c0,.42,0,.91,.01,1.46,0,.56,.01,1.15,.02,1.77,0,.63,.01,1.21,.01,1.75v2.03c-.01,.36,.04,.64,.17,.84,.13,.21,.28,.37,.46,.48,.18,.11,.36,.19,.54,.22s.33,.06,.45,.07Zm-9.46,0c.14,.01,.24,.07,.3,.17,.06,.1,.08,.2,.06,.31-.01,.11-.05,.21-.12,.3-.06,.09-.15,.14-.25,.14-.07,0-.29-.02-.64-.07-.36-.05-.82-.09-1.4-.12-.58-.03-1.23-.03-1.96-.02-.73,.01-1.51,.08-2.32,.21-.09,.01-.16-.02-.21-.12-.06-.09-.09-.2-.1-.31,0-.11,.02-.22,.07-.32,.06-.1,.15-.16,.28-.17,.43-.04,.76-.11,.99-.21,.24-.1,.41-.2,.52-.31,.11-.11,.18-.21,.2-.32,.02-.11,.03-.2,.03-.27,.01-.24,.02-.53,.02-.88v-1c0-.33,0-.62,.01-.87,0-.26,.02-.43,.03-.51,.19-.26,.43-.56,.74-.9,.31-.34,.61-.68,.91-1,.3-.33,.56-.61,.79-.84,.23-.24,.36-.37,.41-.42-.04,1.08-.06,2.08-.06,2.99v1.17c0,.4,0,.77,.02,1.11,.01,.34,.03,.65,.05,.92,.02,.27,.05,.48,.1,.62,.03,.11,.16,.25,.39,.41,.23,.16,.6,.26,1.13,.32Z"/>
    <path d="M657.2,273.21c0,.17,0,.43,.01,.79s.02,.72,.04,1.08,.05,.69,.07,.98c.03,.29,.06,.47,.11,.54,.1,.21,.25,.34,.44,.38s.38,.04,.58,0,.37-.1,.53-.18c.16-.08,.28-.14,.35-.18,.03-.03,.07-.04,.14-.02s.14,.08,.22,.19c.09,.1,.12,.19,.11,.28-.01,.08-.04,.14-.06,.17-.2,.24-.44,.48-.74,.7-.29,.23-.62,.41-.98,.53-.36,.13-.76,.18-1.18,.16s-.87-.17-1.32-.44c-.23-.14-.41-.31-.56-.5s-.26-.4-.36-.61c-.06-.1-.11-.11-.17-.02-.13,.11-.31,.26-.54,.44s-.53,.35-.89,.52-.78,.32-1.27,.44c-.49,.12-1.06,.18-1.72,.18-.8,.01-1.43-.11-1.9-.36-.47-.26-.83-.57-1.07-.94-.24-.37-.4-.76-.47-1.16-.07-.41-.11-.75-.11-1.04,.07-.87,.4-1.65,.98-2.35,.24-.3,.56-.59,.94-.87,.38-.29,.86-.54,1.42-.77,.56-.23,1.22-.42,1.97-.57,.76-.15,1.63-.24,2.63-.27,.1-.95,.08-1.79-.06-2.52-.06-.31-.14-.62-.26-.91-.11-.29-.27-.55-.47-.78s-.44-.41-.74-.53c-.29-.13-.64-.19-1.04-.17-.53,.03-.95,.1-1.28,.22-.33,.12-.58,.26-.76,.42-.18,.16-.3,.33-.35,.49-.06,.16-.08,.3-.08,.41,0,.23,.06,.45,.19,.66,.14,.18,.21,.4,.21,.64,0,.07-.02,.17-.06,.3-.04,.13-.12,.26-.24,.39-.11,.13-.26,.25-.45,.35s-.41,.15-.68,.15c-.33,0-.59-.06-.78-.17-.19-.11-.34-.25-.45-.42-.11-.16-.18-.33-.21-.5-.04-.17-.05-.31-.05-.41,0-.13,.03-.33,.09-.61,.06-.28,.19-.58,.41-.91,.21-.33,.53-.65,.96-.98,.43-.33,1.02-.61,1.77-.85,.16-.04,.46-.1,.92-.17,.46-.07,.96-.1,1.53-.09s1.15,.1,1.75,.26,1.14,.43,1.59,.83c.45,.38,.8,.88,1.03,1.48,.23,.61,.34,1.33,.34,2.19v1.62c.54,.2,1.03,.51,1.45,.94,.43,.43,.76,1.03,1,1.82-1-.63-2.01-1.09-3.03-1.39-.44-.13-.9-.23-1.39-.3-.48-.07-.98-.09-1.48-.05-.51,.04-1.01,.14-1.52,.31-.5,.17-.99,.43-1.46,.79-.5,.37-.85,.76-1.07,1.16s-.31,.79-.3,1.15,.13,.69,.34,.97c.21,.29,.5,.49,.86,.61s.79,.14,1.27,.06c.48-.08,1-.29,1.56-.65l.85-.62v-2.88c.56,0,1.06,.05,1.52,.16,.45,.11,.91,.24,1.37,.39Z"/>
    <path d="M667.64,274.85c-.02,.21-.02,.43,0,.66,.01,.23,.03,.44,.05,.64s.04,.37,.06,.51c.02,.14,.05,.24,.08,.3,.14,.31,.35,.52,.63,.62,.28,.1,.52,.16,.72,.17,.16,.01,.26,.08,.3,.2,.04,.12,.06,.22,.06,.29,0,.04-.02,.12-.06,.23-.04,.11-.14,.18-.3,.19-.04,0-.19-.01-.44-.03-.25-.02-.53-.05-.84-.07s-.62-.05-.92-.07c-.3-.02-.52-.03-.66-.03-.17,0-.43,.01-.77,.03s-.7,.04-1.08,.06c-.38,.02-.73,.05-1.06,.07-.33,.03-.56,.04-.68,.04-.14,0-.23-.06-.27-.18s-.05-.2-.05-.25c-.01-.07,0-.17,.05-.29,.05-.12,.15-.19,.31-.2,.34-.01,.62-.05,.83-.11,.21-.06,.38-.12,.51-.19,.13-.07,.22-.14,.29-.21,.06-.07,.11-.14,.14-.19,.07-.13,.12-.28,.16-.46,.03-.18,.06-.36,.07-.56s.02-.38,.02-.56v-.46l.04-2.67c.41-.45,.87-.95,1.37-1.47,.5-.53,1.02-1.02,1.54-1.47l-.12,5.45Zm.02-8.05c.21-.26,.45-.51,.7-.77,.21-.21,.46-.44,.73-.67,.28-.23,.57-.43,.88-.59,.04-.01,.24-.08,.6-.2,.35-.12,.8-.2,1.33-.22s1.11,.04,1.75,.19c.63,.16,1.24,.51,1.82,1.05,.44,.41,.76,.96,.97,1.64,.21,.68,.31,1.5,.31,2.43,0,1.17,0,2.21,.02,3.14,0,.4,0,.79,.01,1.17s.01,.73,.01,1.05,0,.57,.01,.78c0,.21,.01,.33,.01,.37,.01,.3,.07,.55,.16,.75,.09,.2,.22,.36,.37,.48,.16,.12,.34,.21,.54,.26s.42,.08,.63,.1c.16,.01,.26,.08,.3,.2,.04,.12,.06,.22,.06,.29,0,.06-.03,.14-.08,.26-.05,.11-.15,.17-.29,.17-.07,0-.25-.01-.52-.04-.28-.03-.58-.05-.91-.07-.33-.02-.65-.04-.97-.06s-.55-.03-.69-.03c-.16,0-.4,.01-.72,.03s-.67,.05-1.02,.07c-.36,.03-.68,.05-.97,.07-.29,.02-.49,.03-.59,.03-.13-.01-.21-.08-.26-.19-.04-.11-.06-.19-.06-.23,0-.07,.02-.17,.06-.29,.04-.12,.14-.19,.3-.2,.11-.01,.27-.03,.46-.06,.19-.03,.38-.09,.57-.19,.19-.1,.35-.25,.48-.46,.14-.21,.21-.49,.22-.84v-2.33c0-.63,0-1.32,.02-2.09,0-.54-.03-1.09-.09-1.63s-.19-1.04-.39-1.48c-.21-.44-.5-.8-.89-1.09-.39-.29-.9-.43-1.54-.45-.47,0-.95,.08-1.43,.26-.48,.17-.96,.4-1.43,.69-.47,.29-.93,.63-1.37,1-.44,.38-.85,.76-1.24,1.16-.91,.93-1.79,1.99-2.65,3.18,0-.61,.08-1.18,.24-1.7,.16-.52,.33-.98,.53-1.39s.4-.75,.59-1.03c.19-.28,.34-.47,.44-.59-.03-.24-.06-.52-.08-.83-.03-.31-.06-.55-.09-.7-.06-.26-.15-.45-.29-.59-.13-.13-.29-.24-.45-.31-.16-.07-.33-.11-.5-.12-.17,0-.32-.01-.45-.01-.16,0-.26-.05-.32-.16-.06-.11-.08-.19-.08-.25s.02-.14,.07-.25c.05-.11,.16-.17,.33-.18,.2,0,.44-.01,.72-.03,.28-.02,.6-.07,.97-.14,.73-.13,1.47-.3,2.24-.51,.27-.08,.48-.03,.64,.17,.14,.19,.21,.4,.21,.64l.02,1.35Z"/>
    <path d="M687.09,278.67c-.36,0-.76-.03-1.21-.11-.45-.07-.91-.2-1.38-.4-.47-.19-.93-.46-1.38-.8-.45-.34-.85-.78-1.22-1.31-.36-.53-.66-1.18-.89-1.95-.23-.77-.35-1.67-.36-2.71-.01-.98,.1-1.84,.34-2.58,.24-.74,.56-1.37,.96-1.9,.4-.53,.85-.96,1.37-1.3,.51-.34,1.03-.61,1.54-.79,.63-.23,1.22-.37,1.78-.42,.56-.05,1.05-.06,1.46-.02,.41,.04,.73,.09,.96,.16,.23,.07,.32,.11,.28,.11-1.01,.16-1.88,.46-2.59,.92-.72,.46-1.3,1-1.75,1.63-.45,.63-.78,1.32-.99,2.07-.21,.75-.33,1.5-.35,2.26-.02,.76,.05,1.5,.22,2.21,.17,.71,.41,1.34,.7,1.89,.3,.55,.66,.99,1.09,1.32s.89,.5,1.39,.5c.11,0,.28-.02,.5-.06s.46-.13,.73-.28c.26-.14,.54-.35,.82-.63,.29-.28,.54-.65,.77-1.13,.23-.48,.42-1.06,.57-1.76,.15-.7,.22-1.54,.22-2.54,0-.5-.05-.95-.14-1.35-.09-.4-.21-.76-.35-1.08-.14-.32-.3-.6-.48-.84s-.36-.46-.54-.64c-.44-.41-.94-.73-1.49-.94,.91-.19,1.76-.19,2.54-.02,.33,.07,.66,.19,.99,.35,.33,.16,.65,.39,.95,.68,.3,.29,.56,.66,.79,1.1s.41,.98,.53,1.6c.01,.21,.04,.41,.06,.6,.03,.16,.05,.31,.06,.46,.01,.15,.02,.26,.02,.33-.01,1.05-.15,1.97-.4,2.74-.25,.78-.57,1.44-.96,1.99-.39,.55-.83,.99-1.32,1.33-.49,.34-.98,.61-1.46,.8-.48,.19-.94,.32-1.36,.4s-.77,.11-1.04,.11Z"/>
    <path d="M700.05,278.45c-.61-.16-1.13-.38-1.55-.65-.42-.27-.75-.58-.99-.92-.24-.34-.42-.7-.53-1.07-.29-.85-.31-1.82-.09-2.9,.23,.8,.56,1.52,.98,2.16,.19,.27,.4,.54,.64,.8,.24,.26,.52,.49,.83,.69,.31,.2,.67,.36,1.06,.49,.39,.13,.82,.19,1.29,.19,.5-.01,.93-.09,1.3-.24,.31-.11,.61-.3,.88-.54,.27-.25,.4-.6,.38-1.06-.01-.53-.18-.97-.49-1.32-.31-.36-.7-.67-1.17-.93-.47-.26-.99-.5-1.57-.72s-1.13-.44-1.65-.67c-.53-.24-1-.5-1.43-.79-.43-.29-.73-.66-.92-1.1-.09-.21-.16-.45-.21-.7-.06-.26-.09-.54-.09-.85,0-.61,.11-1.14,.34-1.59,.23-.45,.52-.83,.88-1.14,.36-.31,.76-.56,1.22-.75,.45-.18,.93-.31,1.41-.38,.48-.07,.96-.09,1.43-.06,.47,.03,.9,.09,1.28,.19,.21,.07,.44,.17,.67,.29s.49,.26,.76,.42c.07,.04,.17,.04,.3,0,.13-.07,.24-.24,.32-.49,.01-.04,.05-.09,.1-.15,.05-.06,.18-.07,.39-.04,.19,.01,.3,.05,.33,.11,.03,.06,.04,.1,.01,.13-.04,.11-.08,.3-.13,.56-.04,.26-.07,.56-.1,.92s-.03,.75-.02,1.19,.03,.87,.07,1.31c0,.06-.05,.1-.16,.14-.11,.04-.18,.05-.22,.05-.08,.01-.17,0-.27-.03-.09-.04-.15-.07-.16-.1-.21-1.05-.57-1.87-1.07-2.46-.51-.57-1.32-.85-2.41-.85-.19,0-.42,.02-.71,.05-.28,.04-.56,.12-.82,.27-.26,.14-.49,.35-.69,.62-.2,.27-.31,.64-.32,1.11-.01,.26,.03,.48,.14,.67,.11,.19,.26,.37,.46,.52,.13,.1,.37,.23,.74,.4,.36,.16,.74,.32,1.14,.48s.76,.3,1.08,.43c.32,.13,.52,.2,.59,.21,.9,.33,1.59,.72,2.08,1.16,.49,.45,.85,.89,1.09,1.31s.38,.82,.43,1.17c.05,.36,.07,.6,.07,.73,0,.73-.16,1.34-.48,1.85-.32,.5-.72,.91-1.18,1.23-.47,.31-.98,.54-1.53,.68-.55,.14-1.04,.22-1.48,.23h-.02c-.87,0-1.61-.08-2.22-.25Z"/>
  </g>
</svg>